<svg id="Capa_1" enable-background="new 0 0 497 497" height="512" viewBox="0 0 497 497" width="512" xmlns="http://www.w3.org/2000/svg"><g><path d="m445.81 452.625c0 24.508-19.907 44.375-44.464 44.375h-305.692c-24.557 0-44.464-19.867-44.464-44.375v-408.25c0-24.508 19.907-44.375 44.464-44.375h190.303c8.857 0 17.35 3.516 23.606 9.773l126.505 126.521c6.239 6.239 9.742 14.694 9.742 23.508z" fill="#f9f8f9"/><path d="m125.65 497h-30c-24.55 0-44.46-19.87-44.46-44.38v-408.24c0-24.51 19.91-44.38 44.46-44.38h30c-24.55 0-44.46 19.87-44.46 44.38v408.24c0 24.51 19.91 44.38 44.46 44.38z" fill="#e3e0e4"/><path d="m445.81 159.8v16.24h-115.96c-33.12 0-60.06-26.95-60.06-60.07v-115.97h16.17c8.85 0 17.35 3.52 23.6 9.77l126.51 126.52c6.24 6.24 9.74 14.7 9.74 23.51z" fill="#e3e0e4"/><path d="m442.82 146.04h-112.97c-16.6 0-30.06-13.46-30.06-30.07v-112.96c3.61 1.63 6.92 3.91 9.77 6.76l126.51 126.52c2.85 2.85 5.12 6.15 6.75 9.75z" fill="#faf063"/><path d="m427.5 431h-358c-22.091 0-40-17.909-40-40v-146c0-22.091 17.909-40 40-40h358c22.091 0 40 17.909 40 40v146c0 22.091-17.909 40-40 40z" fill="#faf063"/><path d="m94.5 431h-25c-22.09 0-40-17.91-40-40v-146c0-22.09 17.91-40 40-40h25c-22.09 0-40 17.91-40 40v146c0 22.09 17.91 40 40 40z" fill="#f3d332"/><g fill="#f9f8f9"><path d="m261.51 256.794c-.025-.068-.053-.136-.08-.203-1.584-3.853-5.297-6.341-9.462-6.341-.003 0-.006 0-.009 0-4.168.004-7.882 2.499-9.461 6.356-.023.057-.046.114-.067.172l-45.247 118.803c-1.475 3.87.469 8.203 4.34 9.678 3.866 1.475 8.203-.468 9.678-4.34l9.429-24.757h62.347l9.335 24.736c1.133 3.003 3.987 4.854 7.018 4.854.88 0 1.775-.156 2.647-.485 3.875-1.462 5.831-5.789 4.368-9.665zm-35.167 84.368 25.604-67.226 25.37 67.226z"/><path d="m136.373 256.794c-.025-.068-.053-.136-.08-.203-1.584-3.853-5.297-6.341-9.462-6.341-.003 0-.006 0-.009 0-4.168.004-7.882 2.499-9.461 6.356-.023.057-.046.114-.067.172l-45.247 118.803c-1.475 3.87.469 8.203 4.34 9.678 3.866 1.475 8.203-.468 9.678-4.34l9.429-24.757h62.347l9.335 24.736c1.133 3.003 3.987 4.854 7.018 4.854.88 0 1.775-.156 2.647-.485 3.875-1.462 5.831-5.789 4.368-9.665zm-35.167 84.368 25.604-67.226 25.37 67.226z"/><path d="m420.765 355.675c-3.174-2.662-7.904-2.248-10.566.926-1.29 1.538-2.688 2.98-4.152 4.286-7.536 6.711-17.029 10.113-28.217 10.113-29.225 0-53.001-23.775-53.001-53s23.776-53 53.001-53c10.622 0 20.867 3.128 29.626 9.047 3.435 2.317 8.096 1.416 10.414-2.016 2.318-3.433 1.416-8.095-2.016-10.414-11.249-7.599-24.397-11.617-38.024-11.617-37.496 0-68.001 30.505-68.001 68s30.505 68 68.001 68c14.767 0 27.973-4.811 38.194-13.914 2.005-1.787 3.911-3.754 5.666-5.845 2.663-3.174 2.248-7.904-.925-10.566z"/></g></g></svg>