<?xml version="1.0" encoding="UTF-8" standalone="no"?><!-- Generator: Gravit.io --><svg xmlns="http://www.w3.org/2000/svg" xmlns:xlink="http://www.w3.org/1999/xlink" style="isolation:isolate" viewBox="0 0 104 127.1" width="104pt" height="127.1pt"><g><path d=" M 11.514 1.997 L 92.486 1.997 C 97.717 1.997 102 6.281 102 11.511 L 102 107.805 C 102 113.035 97.717 117.319 92.486 117.319 L 11.514 117.319 C 6.283 117.319 2 113.035 2 107.805 L 2 11.511 C 2 6.281 6.283 1.997 11.514 1.997 Z " fill="rgb(3,253,124)"/><path d=" M 11.514 9.781 L 92.486 9.781 C 97.717 9.781 102 14.065 102 19.295 L 102 115.589 C 102 120.819 97.717 125.103 92.486 125.103 L 11.514 125.103 C 6.283 125.103 2 120.819 2 115.589 L 2 19.295 C 2 14.065 6.283 9.781 11.514 9.781 Z " fill="rgb(242,240,240)"/><g><g><g><g><path d=" M 76.518 84.917 L 88.993 72.372 L 84.092 67.442 L 70.398 81.215 C 64.813 78.435 58.635 76.734 52.008 76.734 C 45.386 76.734 39.208 78.435 33.623 81.215 L 19.924 67.442 L 15.023 72.372 L 27.502 84.917 C 17.194 92.504 10.418 104.695 10.418 118.554 L 10.418 124.53 L 93.598 124.53 L 93.598 118.554 C 93.598 104.695 86.827 92.504 76.518 84.917 Z  M 34.187 112.582 C 30.888 112.582 28.244 109.893 28.244 106.606 C 28.244 103.319 30.888 100.63 34.187 100.63 C 37.482 100.63 40.126 103.319 40.126 106.606 C 40.126 109.893 37.482 112.582 34.187 112.582 Z  M 69.834 112.582 C 66.535 112.582 63.89 109.893 63.89 106.606 C 63.89 103.319 66.535 100.63 69.834 100.63 C 73.133 100.63 75.777 103.319 75.777 106.606 C 75.777 109.893 73.133 112.582 69.834 112.582 Z " fill="rgb(3,253,124)"/></g></g></g></g></g></svg>