<?xml version="1.0" encoding="UTF-8" standalone="no"?><!-- Generator: Gravit.io --><svg xmlns="http://www.w3.org/2000/svg" xmlns:xlink="http://www.w3.org/1999/xlink" style="isolation:isolate" viewBox="0 0 88.2 70" width="88.2" height="70"><g><g><path d=" M 37.086 3.2 L 23.658 3.2 C 22.283 3.2 21.167 4.323 21.167 5.705 L 21.167 13.537 C 21.167 14.92 22.283 16.042 23.658 16.042 L 41.809 16.042 C 43.184 16.042 44.3 14.92 44.3 13.537 L 44.3 11.146 C 40.86 10.16 38.114 7.114 37.086 3.2 Z " fill-rule="evenodd" fill="rgb(5,204,101)"/></g><g filter="url(#ImCpEtUICweGoB1b2G7YAo1kPeyYydnv)"><path d="M 8.28 10.99 L 80.32 10.99 C 82.68 10.99 84.6 12.91 84.6 15.27 L 84.6 62.92 C 84.6 65.28 82.68 67.2 80.32 67.2 L 8.28 67.2 C 5.92 67.2 4 65.28 4 62.92 L 4 15.27 C 4 12.91 5.92 10.99 8.28 10.99 Z" style="stroke:none;fill:#FFD00D;stroke-miterlimit:10;"/><path d=" M 20.692 3.2 L 6.572 3.2 C 5.152 3.2 4 4.359 4 5.786 L 4 13.666 C 4 15.094 5.152 16.253 6.572 16.253 L 25.685 16.253 C 27.104 16.253 28.256 15.094 28.256 13.666 L 28.256 11.276 C 24.649 10.274 21.77 7.178 20.692 3.2 Z " fill-rule="evenodd" fill="rgb(255,208,13)"/></g><defs><filter id="ImCpEtUICweGoB1b2G7YAo1kPeyYydnv" x="-200%" y="-200%" width="400%" height="400%" filterUnits="objectBoundingBox" color-interpolation-filters="sRGB"><feGaussianBlur xmlns="http://www.w3.org/2000/svg" in="SourceGraphic" stdDeviation="2.146804531419514"/><feOffset xmlns="http://www.w3.org/2000/svg" dx="0" dy="0" result="pf_100_offsetBlur"/><feFlood xmlns="http://www.w3.org/2000/svg" flood-color="#4D4C4C" flood-opacity="0.65"/><feComposite xmlns="http://www.w3.org/2000/svg" in2="pf_100_offsetBlur" operator="in" result="pf_100_dropShadow"/><feBlend xmlns="http://www.w3.org/2000/svg" in="SourceGraphic" in2="pf_100_dropShadow" mode="normal"/></filter></defs><g filter="url(#jvtPFOM8KZjew1B7rRzHwfTVEfiNyGCQ)"><path d="M 6.31 37.31 L 25.97 37.31 C 27.24 37.31 28.28 38.35 28.28 39.62 L 28.28 63 C 28.28 64.27 27.24 65.31 25.97 65.31 L 6.31 65.31 C 5.04 65.31 4 64.27 4 63 L 4 39.62 C 4 38.35 5.04 37.31 6.31 37.31 Z" style="stroke:none;fill:#03FD7C;stroke-miterlimit:10;"/><path d="M 6.31 39.2 L 25.97 39.2 C 27.24 39.2 28.28 40.24 28.28 41.51 L 28.28 64.89 C 28.28 66.16 27.24 67.2 25.97 67.2 L 6.31 67.2 C 5.04 67.2 4 66.16 4 64.89 L 4 41.51 C 4 40.24 5.04 39.2 6.31 39.2 Z" style="stroke:none;fill:#F2F0F0;stroke-miterlimit:10;"/><g><g><g><g><path d=" M 22.093 57.443 L 25.122 54.397 L 23.932 53.2 L 20.607 56.544 C 19.251 55.869 17.751 55.456 16.142 55.456 C 14.534 55.456 13.034 55.869 11.678 56.544 L 8.352 53.2 L 7.162 54.397 L 10.192 57.443 C 7.689 59.285 6.044 62.245 6.044 65.61 L 6.044 67.061 L 26.24 67.061 L 26.24 65.61 C 26.24 62.245 24.596 59.285 22.093 57.443 Z  M 11.815 64.16 C 11.014 64.16 10.372 63.507 10.372 62.709 C 10.372 61.911 11.014 61.258 11.815 61.258 C 12.615 61.258 13.257 61.911 13.257 62.709 C 13.257 63.507 12.615 64.16 11.815 64.16 Z  M 20.47 64.16 C 19.669 64.16 19.027 63.507 19.027 62.709 C 19.027 61.911 19.669 61.258 20.47 61.258 C 21.271 61.258 21.913 61.911 21.913 62.709 C 21.913 63.507 21.271 64.16 20.47 64.16 Z " fill="rgb(3,253,124)"/></g></g></g></g></g><defs><filter id="jvtPFOM8KZjew1B7rRzHwfTVEfiNyGCQ" x="-200%" y="-200%" width="400%" height="400%" filterUnits="objectBoundingBox" color-interpolation-filters="sRGB"><feGaussianBlur xmlns="http://www.w3.org/2000/svg" in="SourceGraphic" stdDeviation="4.293609062839028"/><feOffset xmlns="http://www.w3.org/2000/svg" dx="0" dy="0" result="pf_100_offsetBlur"/><feFlood xmlns="http://www.w3.org/2000/svg" flood-color="#939191" flood-opacity="0.65"/><feComposite xmlns="http://www.w3.org/2000/svg" in2="pf_100_offsetBlur" operator="in" result="pf_100_dropShadow"/><feBlend xmlns="http://www.w3.org/2000/svg" in="SourceGraphic" in2="pf_100_dropShadow" mode="normal"/></filter></defs></g></svg>