<?xml version="1.0" encoding="UTF-8" standalone="no"?><!-- Generator: Gravit.io --><svg xmlns="http://www.w3.org/2000/svg" xmlns:xlink="http://www.w3.org/1999/xlink" style="isolation:isolate" viewBox="0 0 88.2 70" width="88.2" height="70"><g><g><g><path d=" M 37.086 3.2 L 23.658 3.2 C 22.283 3.2 21.167 4.323 21.167 5.705 L 21.167 13.537 C 21.167 14.92 22.283 16.042 23.658 16.042 L 41.809 16.042 C 43.184 16.042 44.3 14.92 44.3 13.537 L 44.3 11.146 C 40.86 10.16 38.114 7.114 37.086 3.2 Z " fill-rule="evenodd" fill="rgb(249,11,138)"/></g><g filter="url(#kYnljKL1raUVDSevrrButNrm6KyIM3br)"><path d="M 8.28 10.99 L 80.32 10.99 C 82.68 10.99 84.6 12.91 84.6 15.27 L 84.6 62.92 C 84.6 65.28 82.68 67.2 80.32 67.2 L 8.28 67.2 C 5.92 67.2 4 65.28 4 62.92 L 4 15.27 C 4 12.91 5.92 10.99 8.28 10.99 Z" style="stroke:none;fill:#FFD00D;stroke-miterlimit:10;"/><path d=" M 20.692 3.2 L 6.572 3.2 C 5.152 3.2 4 4.359 4 5.786 L 4 13.666 C 4 15.094 5.152 16.253 6.572 16.253 L 25.685 16.253 C 27.104 16.253 28.256 15.094 28.256 13.666 L 28.256 11.276 C 24.649 10.274 21.77 7.178 20.692 3.2 Z " fill-rule="evenodd" fill="rgb(255,208,13)"/></g><defs><filter id="kYnljKL1raUVDSevrrButNrm6KyIM3br" x="-200%" y="-200%" width="400%" height="400%" filterUnits="objectBoundingBox" color-interpolation-filters="sRGB"><feGaussianBlur xmlns="http://www.w3.org/2000/svg" in="SourceGraphic" stdDeviation="2.146804531419514"/><feOffset xmlns="http://www.w3.org/2000/svg" dx="0" dy="0" result="pf_100_offsetBlur"/><feFlood xmlns="http://www.w3.org/2000/svg" flood-color="#4D4C4C" flood-opacity="0.65"/><feComposite xmlns="http://www.w3.org/2000/svg" in2="pf_100_offsetBlur" operator="in" result="pf_100_dropShadow"/><feBlend xmlns="http://www.w3.org/2000/svg" in="SourceGraphic" in2="pf_100_dropShadow" mode="normal"/></filter></defs></g><g filter="url(#UmvA7X2ZRg8xI5oICHERzlopduK3ymVw)"><g><path d="M 6.23 37.09 L 23.33 37.09 C 24.56 37.09 25.56 38.09 25.56 39.32 L 25.56 64.97 C 25.56 66.2 24.56 67.2 23.33 67.2 L 6.23 67.2 C 5 67.2 4 66.2 4 64.97 L 4 39.32 C 4 38.09 5 37.09 6.23 37.09 Z" style="stroke:none;fill:#F90B8A;stroke-miterlimit:10;"/><path d="M 6.13 39.81 L 23.43 39.81 C 24.61 39.81 25.56 40.76 25.56 41.94 L 25.56 65.07 C 25.56 66.25 24.61 67.2 23.43 67.2 L 6.13 67.2 C 4.95 67.2 4 66.25 4 65.07 L 4 41.94 C 4 40.76 4.95 39.81 6.13 39.81 Z" style="stroke:none;fill:#CE0F75;stroke-miterlimit:10;"/><g><g><g><path d=" M 13.691 60.798 C 13.505 60.798 13.354 60.93 13.354 61.095 L 13.354 65.718 C 13.354 65.881 13.505 66.014 13.691 66.014 L 15.77 66.014 C 15.957 66.014 16.108 65.881 16.108 65.718 L 16.108 61.095 C 16.108 60.931 15.957 60.798 15.77 60.798 L 15.573 60.798 L 15.573 61.861 C 15.573 62.27 15.196 62.603 14.73 62.603 C 14.266 62.603 13.887 62.27 13.887 61.861 L 13.887 60.798 L 13.691 60.798 Z  M 13.972 64.432 C 13.972 64.159 14.224 63.937 14.535 63.937 L 14.927 63.937 C 15.238 63.937 15.49 64.159 15.49 64.432 L 15.49 64.877 C 15.49 65.15 15.238 65.371 14.927 65.371 L 14.535 65.371 C 14.224 65.371 13.972 65.15 13.972 64.877 L 13.972 64.432 Z " fill="rgb(255,255,255)"/><path d=" M 14.73 62.405 C 15.072 62.405 15.349 62.161 15.349 61.861 L 15.349 60.056 C 15.349 59.756 15.072 59.512 14.73 59.512 C 14.389 59.512 14.112 59.756 14.112 60.056 L 14.112 61.861 C 14.113 62.162 14.389 62.405 14.73 62.405 Z " fill="rgb(255,255,255)"/><path d=" M 12.439 47.37 C 12.321 47.097 12.203 46.839 12.086 46.597 L 10.812 47.07 C 10.922 47.3 11.034 47.544 11.146 47.803 L 12.439 47.37 Z " fill="rgb(255,255,255)"/><path d=" M 11.701 45.833 C 11.554 45.557 11.412 45.307 11.279 45.082 L 10.053 45.645 C 10.177 45.855 10.31 46.09 10.448 46.349 L 11.701 45.833 Z " fill="rgb(255,255,255)"/><path d=" M 12.733 53.166 C 12.779 53.423 12.821 53.686 12.861 53.954 L 14.232 53.798 C 14.192 53.519 14.148 53.247 14.101 52.979 L 12.733 53.166 Z " fill="rgb(255,255,255)"/><path d=" M 14.521 57.094 C 14.513 56.815 14.501 56.539 14.485 56.267 L 13.103 56.331 C 13.118 56.592 13.131 56.857 13.139 57.126 L 14.521 57.094 Z " fill="rgb(255,255,255)"/><path d=" M 12.964 54.743 C 12.994 55.003 13.021 55.267 13.044 55.536 L 14.424 55.443 C 14.399 55.164 14.371 54.89 14.34 54.62 L 12.964 54.743 Z " fill="rgb(255,255,255)"/><path d=" M 13.052 48.943 C 12.957 48.668 12.859 48.405 12.76 48.152 L 11.452 48.547 C 11.546 48.788 11.639 49.039 11.73 49.299 L 13.052 48.943 Z " fill="rgb(255,255,255)"/><path d=" M 9.166 44.33 C 9.168 44.331 9.347 44.547 9.624 44.961 L 10.816 44.344 C 10.497 43.867 10.286 43.616 10.278 43.606 L 9.166 44.33 Z " fill="rgb(255,255,255)"/><path d=" M 12.408 51.604 C 12.469 51.856 12.528 52.116 12.583 52.382 L 13.943 52.164 C 13.886 51.886 13.824 51.615 13.76 51.35 L 12.408 51.604 Z " fill="rgb(255,255,255)"/><path d=" M 13.551 50.542 C 13.475 50.266 13.396 49.999 13.315 49.739 L 11.981 50.062 C 12.059 50.309 12.134 50.565 12.206 50.83 L 13.551 50.542 Z " fill="rgb(255,255,255)"/><path d=" M 20.397 44.33 L 19.841 43.968 L 19.285 43.605 C 19.276 43.615 19.066 43.867 18.746 44.344 L 19.939 44.961 C 20.216 44.547 20.395 44.331 20.397 44.33 Z " fill="rgb(255,255,255)"/><path d=" M 15.041 57.094 L 16.424 57.126 C 16.432 56.857 16.444 56.592 16.46 56.331 L 15.078 56.267 C 15.062 56.539 15.049 56.815 15.041 57.094 Z " fill="rgb(255,255,255)"/><path d=" M 15.139 55.443 L 16.518 55.536 C 16.542 55.267 16.569 55.003 16.599 54.743 L 15.223 54.62 C 15.192 54.89 15.163 55.164 15.139 55.443 Z " fill="rgb(255,255,255)"/><path d=" M 19.51 45.645 L 18.284 45.082 C 18.151 45.307 18.009 45.557 17.862 45.833 L 19.115 46.349 C 19.253 46.09 19.385 45.855 19.51 45.645 Z " fill="rgb(255,255,255)"/><path d=" M 16.83 53.166 L 15.462 52.979 C 15.415 53.247 15.371 53.52 15.33 53.798 L 16.702 53.954 C 16.742 53.686 16.784 53.423 16.83 53.166 Z " fill="rgb(255,255,255)"/><path d=" M 18.751 47.069 L 17.477 46.596 C 17.36 46.839 17.242 47.097 17.124 47.37 L 18.417 47.802 C 18.529 47.544 18.641 47.3 18.751 47.069 Z " fill="rgb(255,255,255)"/><path d=" M 15.802 51.35 C 15.738 51.615 15.677 51.885 15.619 52.164 L 16.98 52.382 C 17.035 52.116 17.094 51.856 17.155 51.604 L 15.802 51.35 Z " fill="rgb(255,255,255)"/><path d=" M 17.12 60.563 C 17.12 59.84 16.85 59.186 16.415 58.713 C 16.41 58.503 16.408 58.297 16.408 58.091 L 16.409 57.925 L 15.025 57.917 L 15.025 57.977 C 14.928 57.963 14.831 57.954 14.731 57.954 C 14.665 57.954 14.602 57.96 14.538 57.965 L 14.538 57.916 L 13.154 57.925 L 13.155 58.09 C 13.155 58.263 13.152 58.437 13.15 58.611 C 12.655 59.089 12.342 59.785 12.342 60.563 C 12.342 61.331 12.646 62.02 13.129 62.497 L 13.129 61.094 C 13.129 60.822 13.381 60.599 13.691 60.599 L 13.888 60.599 L 13.888 60.056 C 13.888 59.647 14.266 59.314 14.731 59.314 C 15.196 59.314 15.574 59.647 15.574 60.056 L 15.574 60.599 L 15.77 60.599 C 16.08 60.599 16.333 60.822 16.333 61.094 L 16.333 62.497 C 16.816 62.021 17.12 61.331 17.12 60.563 Z " fill="rgb(255,255,255)"/><path d=" M 18.112 48.546 L 16.803 48.152 C 16.704 48.405 16.606 48.668 16.511 48.942 L 17.833 49.299 C 17.924 49.039 18.017 48.788 18.112 48.546 Z " fill="rgb(255,255,255)"/><path d=" M 17.582 50.061 L 16.247 49.739 C 16.166 49.999 16.087 50.266 16.011 50.542 L 17.356 50.829 C 17.429 50.566 17.504 50.309 17.582 50.061 Z " fill="rgb(255,255,255)"/></g></g></g></g></g><defs><filter id="UmvA7X2ZRg8xI5oICHERzlopduK3ymVw" x="-200%" y="-200%" width="400%" height="400%" filterUnits="objectBoundingBox" color-interpolation-filters="sRGB"><feGaussianBlur xmlns="http://www.w3.org/2000/svg" in="SourceGraphic" stdDeviation="4.293609062839028"/><feOffset xmlns="http://www.w3.org/2000/svg" dx="0" dy="0" result="pf_100_offsetBlur"/><feFlood xmlns="http://www.w3.org/2000/svg" flood-color="#6A6969" flood-opacity="0.65"/><feComposite xmlns="http://www.w3.org/2000/svg" in2="pf_100_offsetBlur" operator="in" result="pf_100_dropShadow"/><feBlend xmlns="http://www.w3.org/2000/svg" in="SourceGraphic" in2="pf_100_dropShadow" mode="normal"/></filter></defs></g></svg>