<?xml version="1.0" encoding="UTF-8" standalone="no"?><!-- Generator: Gravit.io --><svg xmlns="http://www.w3.org/2000/svg" xmlns:xlink="http://www.w3.org/1999/xlink" style="isolation:isolate" viewBox="0 0 105 145.1" width="105pt" height="145.1pt"><g><path d=" M 12.447 2 L 92.553 2 C 98.315 2 103 6.685 103 12.447 L 103 132.607 C 103 138.369 98.315 143.053 92.553 143.053 L 12.447 143.053 C 6.685 143.053 2 138.369 2 132.607 L 2 12.447 C 2 6.685 6.685 2 12.447 2 Z " fill="rgb(249,11,138)"/><path d=" M 11.978 14.742 L 93.022 14.742 C 98.55 14.742 103 19.192 103 24.72 L 103 133.075 C 103 138.603 98.55 143.053 93.022 143.053 L 11.978 143.053 C 6.45 143.053 2 138.603 2 133.075 L 2 24.72 C 2 19.192 6.45 14.742 11.978 14.742 Z " fill="rgb(206,15,117)"/><g><g><g><path d=" M 47.398 113.063 C 46.527 113.063 45.82 113.681 45.82 114.454 L 45.82 136.111 C 45.82 136.874 46.527 137.497 47.398 137.497 L 57.138 137.497 C 58.014 137.497 58.721 136.874 58.721 136.111 L 58.721 114.454 C 58.721 113.686 58.014 113.063 57.138 113.063 L 56.215 113.063 L 56.215 118.042 C 56.215 119.958 54.449 121.518 52.266 121.518 C 50.092 121.518 48.317 119.958 48.317 118.042 L 48.317 113.063 L 47.398 113.063 Z  M 48.715 130.086 C 48.715 128.807 49.895 127.767 51.352 127.767 L 53.189 127.767 C 54.646 127.767 55.826 128.807 55.826 130.086 L 55.826 132.171 C 55.826 133.45 54.646 134.485 53.189 134.485 L 51.352 134.485 C 49.895 134.485 48.715 133.45 48.715 132.171 L 48.715 130.086 Z " fill="rgb(255,255,255)"/><path d=" M 52.266 120.591 C 53.868 120.591 55.166 119.448 55.166 118.042 L 55.166 109.587 C 55.166 108.181 53.868 107.038 52.266 107.038 C 50.668 107.038 49.371 108.181 49.371 109.587 L 49.371 118.042 C 49.375 119.452 50.668 120.591 52.266 120.591 Z " fill="rgb(255,255,255)"/><path d=" M 41.533 50.158 C 40.981 48.879 40.428 47.67 39.88 46.537 L 33.912 48.752 C 34.427 49.83 34.951 50.973 35.476 52.186 L 41.533 50.158 Z " fill="rgb(255,255,255)"/><path d=" M 38.076 42.957 C 37.387 41.665 36.722 40.493 36.099 39.439 L 30.356 42.077 C 30.937 43.061 31.56 44.161 32.206 45.375 L 38.076 42.957 Z " fill="rgb(255,255,255)"/><path d=" M 42.911 77.31 C 43.126 78.514 43.323 79.746 43.51 81.001 L 49.933 80.27 C 49.745 78.963 49.539 77.689 49.319 76.434 L 42.911 77.31 Z " fill="rgb(255,255,255)"/><path d=" M 51.287 95.711 C 51.249 94.404 51.193 93.111 51.118 91.837 L 44.644 92.136 C 44.714 93.359 44.775 94.601 44.813 95.861 L 51.287 95.711 Z " fill="rgb(255,255,255)"/><path d=" M 43.993 84.697 C 44.133 85.915 44.26 87.152 44.368 88.412 L 50.832 87.976 C 50.715 86.669 50.584 85.386 50.439 84.121 L 43.993 84.697 Z " fill="rgb(255,255,255)"/><path d=" M 44.405 57.527 C 43.96 56.238 43.501 55.006 43.037 53.821 L 36.91 55.671 C 37.35 56.8 37.786 57.976 38.212 59.194 L 44.405 57.527 Z " fill="rgb(255,255,255)"/><path d=" M 26.201 35.917 C 26.21 35.921 27.049 36.933 28.346 38.872 L 33.93 35.982 C 32.436 33.748 31.447 32.572 31.41 32.525 L 26.201 35.917 Z " fill="rgb(255,255,255)"/><path d=" M 41.388 69.992 C 41.674 71.173 41.95 72.391 42.208 73.637 L 48.579 72.616 C 48.312 71.313 48.022 70.044 47.722 68.802 L 41.388 69.992 Z " fill="rgb(255,255,255)"/><path d=" M 46.743 65.017 C 46.387 63.724 46.017 62.474 45.637 61.256 L 39.388 62.769 C 39.753 63.926 40.105 65.125 40.442 66.366 L 46.743 65.017 Z " fill="rgb(255,255,255)"/><path d=" M 78.813 35.917 L 76.209 34.221 L 73.604 32.52 C 73.562 32.567 72.578 33.748 71.079 35.982 L 76.668 38.872 C 77.965 36.933 78.804 35.921 78.813 35.917 Z " fill="rgb(255,255,255)"/><path d=" M 53.723 95.711 L 60.201 95.861 C 60.239 94.601 60.295 93.359 60.37 92.136 L 53.896 91.837 C 53.821 93.111 53.76 94.404 53.723 95.711 Z " fill="rgb(255,255,255)"/><path d=" M 54.182 87.976 L 60.642 88.412 C 60.754 87.152 60.881 85.915 61.021 84.697 L 54.575 84.121 C 54.43 85.386 54.294 86.669 54.182 87.976 Z " fill="rgb(255,255,255)"/><path d=" M 74.658 42.077 L 68.915 39.439 C 68.292 40.493 67.627 41.665 66.938 42.957 L 72.808 45.375 C 73.454 44.161 74.073 43.061 74.658 42.077 Z " fill="rgb(255,255,255)"/><path d=" M 62.103 77.31 L 55.695 76.434 C 55.475 77.689 55.269 78.968 55.077 80.27 L 61.504 81.001 C 61.691 79.746 61.888 78.514 62.103 77.31 Z " fill="rgb(255,255,255)"/><path d=" M 71.103 48.748 L 65.134 46.532 C 64.586 47.67 64.033 48.879 63.481 50.158 L 69.538 52.181 C 70.063 50.973 70.587 49.83 71.103 48.748 Z " fill="rgb(255,255,255)"/><path d=" M 57.288 68.802 C 56.988 70.044 56.702 71.309 56.43 72.616 L 62.806 73.637 C 63.064 72.391 63.34 71.173 63.626 69.992 L 57.288 68.802 Z " fill="rgb(255,255,255)"/><path d=" M 63.462 111.962 C 63.462 108.575 62.197 105.511 60.159 103.295 C 60.136 102.311 60.127 101.346 60.127 100.381 L 60.131 99.604 L 53.648 99.566 L 53.648 99.847 C 53.193 99.782 52.739 99.74 52.27 99.74 C 51.961 99.74 51.666 99.768 51.366 99.791 L 51.366 99.562 L 44.883 99.604 L 44.888 100.377 C 44.888 101.187 44.873 102.002 44.864 102.817 C 42.545 105.057 41.079 108.317 41.079 111.962 C 41.079 115.559 42.503 118.787 44.766 121.022 L 44.766 114.449 C 44.766 113.175 45.946 112.13 47.398 112.13 L 48.321 112.13 L 48.321 109.587 C 48.321 107.671 50.092 106.111 52.27 106.111 C 54.449 106.111 56.22 107.671 56.22 109.587 L 56.22 112.13 L 57.138 112.13 C 58.59 112.13 59.775 113.175 59.775 114.449 L 59.775 121.022 C 62.038 118.792 63.462 115.559 63.462 111.962 Z " fill="rgb(255,255,255)"/><path d=" M 68.109 55.667 L 61.977 53.821 C 61.513 55.006 61.054 56.238 60.609 57.522 L 66.802 59.194 C 67.228 57.976 67.664 56.8 68.109 55.667 Z " fill="rgb(255,255,255)"/><path d=" M 65.626 62.764 L 59.372 61.256 C 58.993 62.474 58.623 63.724 58.267 65.017 L 64.568 66.362 C 64.91 65.13 65.261 63.926 65.626 62.764 Z " fill="rgb(255,255,255)"/></g></g></g></g></svg>