<svg id="Capa_1" enable-background="new 0 0 497 497" height="512" viewBox="0 0 497 497" width="512" xmlns="http://www.w3.org/2000/svg"><g><path d="m60.721 460v-400c0-33.137 26.863-60 60-60h300.566c11.046 0 20 8.954 20 20v408.819z" fill="#faf063"/><path d="m150.72 0c-33.14 0-60 26.86-60 60v397.54l-30 2.46v-400c0-33.14 26.86-60 60-60z" fill="#f3d332"/><path d="m440.66 489.6c.43.78.62 1.6.62 2.4 0 2.61-2.09 5-5 5h-339.06c-20.16 0-36.5-16.34-36.5-36.5 0-10.08 4.08-19.2 10.69-25.81s15.73-10.69 25.81-10.69h339.06c3.8 0 6.21 4.07 4.38 7.4-4.96 9.06-7.45 19.08-7.45 29.1s2.49 20.04 7.45 29.1z" fill="#f9f8f9"/><path d="m440.66 431.4c-3.89 7.1-6.26 14.78-7.09 22.6h-327.923c-8.3 0-15.022 6.74-15 15.04l.073 27.38c-17.06-3.06-30-17.98-30-35.92 0-10.08 4.08-19.2 10.69-25.81s15.73-10.69 25.81-10.69h339.06c3.8 0 6.21 4.07 4.38 7.4z" fill="#e3e0e4"/><path d="m427.5 325h-358c-22.091 0-40-17.909-40-40v-146c0-22.091 17.909-40 40-40h358c22.091 0 40 17.909 40 40v146c0 22.091-17.909 40-40 40z" fill="#dc4955"/><path d="m94.5 325h-25c-22.09 0-40-17.91-40-40v-146c0-22.09 17.91-40 40-40h25c-22.09 0-40 17.91-40 40v146c0 22.09 17.91 40 40 40z" fill="#c42430"/><g fill="#f9f8f9"><path d="m286.63 204.726c5.91-6.079 9.56-14.365 9.56-23.492 0-18.599-15.131-33.729-33.73-33.729h-33.112c-4.142 0-7.5 3.357-7.5 7.5v52.49.085 61.417c0 1.995.795 3.907 2.208 5.315 1.406 1.399 3.309 2.185 5.292 2.185h.033c.305-.001 30.57-.135 38.862-.135 21.055 0 38.184-17.129 38.184-38.184-.001-14.392-8.007-26.946-19.797-33.452zm-24.171-42.222c10.328 0 18.73 8.402 18.73 18.729s-8.402 18.729-18.73 18.729c-2.428 0-7.028.014-12.043.031h-13.57v-37.49h25.613zm5.783 98.857c-5.714 0-21.781.063-31.395.103v-46.417c3.956-.016 8.942-.036 13.573-.053h17.822c12.784 0 23.184 10.4 23.184 23.184s-10.4 23.183-23.184 23.183z"/><path d="m199.165 247.158c-3.175-2.662-7.905-2.246-10.566.931-1.201 1.432-2.501 2.774-3.866 3.99-7.017 6.248-15.863 9.417-26.293 9.417-27.292 0-49.497-22.204-49.497-49.496s22.204-49.496 49.497-49.496c9.92 0 19.488 2.921 27.668 8.448 3.432 2.318 8.095 1.416 10.414-2.017 2.319-3.432 1.416-8.094-2.016-10.413-10.67-7.208-23.142-11.019-36.066-11.019-35.563 0-64.497 28.933-64.497 64.496s28.933 64.496 64.497 64.496c14.019 0 26.561-4.57 36.27-13.216 1.907-1.698 3.719-3.567 5.386-5.557 2.66-3.172 2.243-7.903-.931-10.564z"/><path d="m363.969 221.755h.285c21.396 0 38.802-16.654 38.802-37.126 0-20.471-17.407-37.125-38.802-37.125h-30.292c-.006 0-.012.001-.018.001s-.012-.001-.018-.001c-4.142 0-7.5 3.357-7.5 7.5v113.992c0 4.143 3.358 7.5 7.5 7.5s7.5-3.357 7.5-7.5v-47.151c.834-.005 1.714-.009 2.628-.014l45.873 52.12c1.482 1.685 3.552 2.545 5.633 2.545 1.76 0 3.527-.616 4.952-1.87 3.109-2.736 3.412-7.476.675-10.585zm.285-59.251c12.902 0 23.802 10.132 23.802 22.125s-10.9 22.126-23.802 22.126c-5.192 0-15.521.051-22.625.089-.04-7.022-.091-17.169-.091-22.215 0-4.25-.03-14.826-.052-22.125z"/></g></g></svg>