<?xml version="1.0" encoding="UTF-8" standalone="no"?><!-- Generator: Gravit.io --><svg xmlns="http://www.w3.org/2000/svg" xmlns:xlink="http://www.w3.org/1999/xlink" style="isolation:isolate" viewBox="0 0 88.2 70" width="88.2" height="70"><g><g><path d=" M 37.103 3.2 L 23.668 3.2 C 22.292 3.2 21.175 4.323 21.175 5.705 L 21.175 13.537 C 21.175 14.92 22.292 16.042 23.668 16.042 L 41.827 16.042 C 43.203 16.042 44.32 14.92 44.32 13.537 L 44.32 11.146 C 40.878 10.16 38.131 7.114 37.103 3.2 Z " fill-rule="evenodd" fill="rgb(61,110,234)"/></g><g filter="url(#ESf93Pn2Q77AfIZENRryYEnOSUL2KZMU)"><path d="M 8.28 10.99 L 80.36 10.99 C 82.72 10.99 84.64 12.91 84.64 15.27 L 84.64 62.92 C 84.64 65.28 82.72 67.2 80.36 67.2 L 8.28 67.2 C 5.92 67.2 4 65.28 4 62.92 L 4 15.27 C 4 12.91 5.92 10.99 8.28 10.99 Z" style="stroke:none;fill:#FFD00D;stroke-miterlimit:10;"/><path d=" M 20.701 3.2 L 6.573 3.2 C 5.153 3.2 4 4.359 4 5.786 L 4 13.666 C 4 15.094 5.153 16.253 6.573 16.253 L 25.695 16.253 C 27.115 16.253 28.268 15.094 28.268 13.666 L 28.268 11.276 C 24.66 10.274 21.779 7.178 20.701 3.2 Z " fill-rule="evenodd" fill="rgb(255,208,13)"/></g><defs><filter id="ESf93Pn2Q77AfIZENRryYEnOSUL2KZMU" x="-200%" y="-200%" width="400%" height="400%" filterUnits="objectBoundingBox" color-interpolation-filters="sRGB"><feGaussianBlur xmlns="http://www.w3.org/2000/svg" in="SourceGraphic" stdDeviation="2.146804531419514"/><feOffset xmlns="http://www.w3.org/2000/svg" dx="0" dy="0" result="pf_100_offsetBlur"/><feFlood xmlns="http://www.w3.org/2000/svg" flood-color="#4D4C4C" flood-opacity="0.65"/><feComposite xmlns="http://www.w3.org/2000/svg" in2="pf_100_offsetBlur" operator="in" result="pf_100_dropShadow"/><feBlend xmlns="http://www.w3.org/2000/svg" in="SourceGraphic" in2="pf_100_dropShadow" mode="normal"/></filter></defs><g filter="url(#2HjRqRerUE1EXeooZ8EoqqNKHudACZOc)"><g><g><g><g><g><path d=" M 28.087 43.637 L 21.602 41.762 L 19.749 35.2 L 6.779 35.2 C 5.244 35.2 4 36.459 4 38.012 L 4 64.387 C 4 65.941 5.244 67.2 6.779 67.2 L 25.308 67.2 C 26.843 67.2 28.087 65.941 28.087 64.387 L 28.087 43.637 Z " fill="rgb(64,134,244)"/></g></g></g></g><path d=" M 28.087 43.637 L 28.087 64.387 C 28.087 65.941 26.843 67.2 25.308 67.2 L 16.044 67.2 L 16.044 35.2 L 19.749 35.2 L 21.602 41.762 L 28.087 43.637 Z " fill="rgb(65,117,223)"/><path d=" M 28.087 43.637 L 21.602 43.637 C 20.583 43.637 19.749 42.794 19.749 41.762 L 19.749 35.2 C 19.99 35.2 20.231 35.294 20.398 35.481 L 27.809 42.981 C 27.995 43.15 28.087 43.394 28.087 43.637 Z " fill="rgb(128,174,248)"/><g><path d=" M 21.602 50.262 L 10.485 50.262 C 9.973 50.262 9.559 49.843 9.559 49.325 C 9.559 48.807 9.973 48.387 10.485 48.387 L 21.602 48.387 C 22.114 48.387 22.529 48.807 22.529 49.325 C 22.529 49.843 22.114 50.262 21.602 50.262 Z " fill="rgb(255,245,245)"/></g><g><path d=" M 21.602 54.012 L 10.485 54.012 C 9.973 54.012 9.559 53.593 9.559 53.075 C 9.559 52.557 9.973 52.137 10.485 52.137 L 21.602 52.137 C 22.114 52.137 22.529 52.557 22.529 53.075 C 22.529 53.593 22.114 54.012 21.602 54.012 Z " fill="rgb(255,245,245)"/></g><g><path d=" M 21.602 57.762 L 10.485 57.762 C 9.973 57.762 9.559 57.343 9.559 56.825 C 9.559 56.307 9.973 55.887 10.485 55.887 L 21.602 55.887 C 22.114 55.887 22.529 56.307 22.529 56.825 C 22.529 57.343 22.114 57.762 21.602 57.762 Z " fill="rgb(255,245,245)"/></g><g><path d=" M 17.897 61.512 L 10.485 61.512 C 9.973 61.512 9.559 61.093 9.559 60.575 C 9.559 60.057 9.973 59.637 10.485 59.637 L 17.897 59.637 C 18.409 59.637 18.823 60.057 18.823 60.575 C 18.823 61.093 18.409 61.512 17.897 61.512 Z " fill="rgb(255,245,245)"/></g></g><g><g><g><path d=" M 16.044 61.512 L 17.897 61.512 C 18.409 61.512 18.823 61.093 18.823 60.575 C 18.823 60.057 18.409 59.637 17.897 59.637 L 16.044 59.637 L 16.044 61.512 Z " fill="rgb(227,231,234)"/></g><g><path d=" M 16.044 57.762 L 21.602 57.762 C 22.114 57.762 22.529 57.343 22.529 56.825 C 22.529 56.307 22.114 55.887 21.602 55.887 L 16.044 55.887 L 16.044 57.762 Z " fill="rgb(227,231,234)"/></g><g><path d=" M 16.044 54.012 L 21.602 54.012 C 22.114 54.012 22.529 53.593 22.529 53.075 C 22.529 52.557 22.114 52.137 21.602 52.137 L 16.044 52.137 L 16.044 54.012 Z " fill="rgb(227,231,234)"/></g><g><path d=" M 16.044 50.262 L 21.602 50.262 C 22.114 50.262 22.529 49.843 22.529 49.325 C 22.529 48.807 22.114 48.387 21.602 48.387 L 16.044 48.387 L 16.044 50.262 Z " fill="rgb(227,231,234)"/></g></g></g></g><defs><filter id="2HjRqRerUE1EXeooZ8EoqqNKHudACZOc" x="-200%" y="-200%" width="400%" height="400%" filterUnits="objectBoundingBox" color-interpolation-filters="sRGB"><feGaussianBlur xmlns="http://www.w3.org/2000/svg" in="SourceGraphic" stdDeviation="4.293609062839028"/><feOffset xmlns="http://www.w3.org/2000/svg" dx="0" dy="0" result="pf_100_offsetBlur"/><feFlood xmlns="http://www.w3.org/2000/svg" flood-color="#5B5B5B" flood-opacity="0.65"/><feComposite xmlns="http://www.w3.org/2000/svg" in2="pf_100_offsetBlur" operator="in" result="pf_100_dropShadow"/><feBlend xmlns="http://www.w3.org/2000/svg" in="SourceGraphic" in2="pf_100_dropShadow" mode="normal"/></filter></defs></g></svg>