<?xml version="1.0" encoding="UTF-8" standalone="no"?><!-- Generator: Gravit.io --><svg xmlns="http://www.w3.org/2000/svg" xmlns:xlink="http://www.w3.org/1999/xlink" style="isolation:isolate" viewBox="0 0 88.2 70" width="88.2" height="70"><g><g><path d=" M 37.086 3.2 L 23.658 3.2 C 22.283 3.2 21.167 4.323 21.167 5.705 L 21.167 13.537 C 21.167 14.92 22.283 16.042 23.658 16.042 L 41.809 16.042 C 43.184 16.042 44.3 14.92 44.3 13.537 L 44.3 11.146 C 40.86 10.16 38.114 7.114 37.086 3.2 Z " fill-rule="evenodd" fill="rgb(33,150,243)"/></g><g filter="url(#fIN4CJM7Z2jCTq11seEAV61G4faHtOo5)"><path d="M 8.28 10.99 L 80.32 10.99 C 82.68 10.99 84.6 12.91 84.6 15.27 L 84.6 62.92 C 84.6 65.28 82.68 67.2 80.32 67.2 L 8.28 67.2 C 5.92 67.2 4 65.28 4 62.92 L 4 15.27 C 4 12.91 5.92 10.99 8.28 10.99 Z" style="stroke:none;fill:#FFD00D;stroke-miterlimit:10;"/><path d=" M 20.692 3.2 L 6.572 3.2 C 5.152 3.2 4 4.359 4 5.786 L 4 13.666 C 4 15.094 5.152 16.253 6.572 16.253 L 25.685 16.253 C 27.104 16.253 28.256 15.094 28.256 13.666 L 28.256 11.276 C 24.649 10.274 21.77 7.178 20.692 3.2 Z " fill-rule="evenodd" fill="rgb(255,208,13)"/></g><defs><filter id="fIN4CJM7Z2jCTq11seEAV61G4faHtOo5" x="-200%" y="-200%" width="400%" height="400%" filterUnits="objectBoundingBox" color-interpolation-filters="sRGB"><feGaussianBlur xmlns="http://www.w3.org/2000/svg" in="SourceGraphic" stdDeviation="2.146804531419514"/><feOffset xmlns="http://www.w3.org/2000/svg" dx="0" dy="0" result="pf_100_offsetBlur"/><feFlood xmlns="http://www.w3.org/2000/svg" flood-color="#4D4C4C" flood-opacity="0.65"/><feComposite xmlns="http://www.w3.org/2000/svg" in2="pf_100_offsetBlur" operator="in" result="pf_100_dropShadow"/><feBlend xmlns="http://www.w3.org/2000/svg" in="SourceGraphic" in2="pf_100_dropShadow" mode="normal"/></filter></defs><g filter="url(#bdf3D9Uue5GWCHn32pUIOUG4Fodj7qeb)"><path d=" M 20.399 34.218 C 11.342 34.218 4 41.601 4 50.709 C 4 59.817 11.342 67.2 20.399 67.2 C 29.456 67.2 36.798 59.817 36.798 50.709 C 36.788 41.605 29.452 34.228 20.399 34.218 Z " fill="rgb(33,150,243)"/><path d=" M 25.248 49.131 L 23.964 50.422 L 23.964 42.105 C 23.964 40.125 22.368 38.52 20.399 38.52 C 18.43 38.52 16.834 40.125 16.834 42.105 L 16.834 50.412 L 15.551 49.121 C 14.271 47.892 12.257 47.892 10.977 49.121 C 9.715 50.391 9.715 52.45 10.977 53.72 L 18.882 61.669 C 19.717 62.509 21.071 62.509 21.906 61.669 L 29.811 53.72 C 31.073 52.45 31.073 50.391 29.811 49.121 C 28.53 47.901 26.523 47.906 25.248 49.131 Z " fill="rgb(250,250,250)"/></g><defs><filter id="bdf3D9Uue5GWCHn32pUIOUG4Fodj7qeb" x="-200%" y="-200%" width="400%" height="400%" filterUnits="objectBoundingBox" color-interpolation-filters="sRGB"><feGaussianBlur xmlns="http://www.w3.org/2000/svg" in="SourceGraphic" stdDeviation="4.293609062839028"/><feOffset xmlns="http://www.w3.org/2000/svg" dx="0" dy="0" result="pf_100_offsetBlur"/><feFlood xmlns="http://www.w3.org/2000/svg" flood-color="#6C6C6C" flood-opacity="0.65"/><feComposite xmlns="http://www.w3.org/2000/svg" in2="pf_100_offsetBlur" operator="in" result="pf_100_dropShadow"/><feBlend xmlns="http://www.w3.org/2000/svg" in="SourceGraphic" in2="pf_100_dropShadow" mode="normal"/></filter></defs></g></svg>