<svg id="Capa_1" enable-background="new 0 0 512 512" height="512" viewBox="0 0 512 512" width="512" xmlns="http://www.w3.org/2000/svg"><g><g><path d="m62.554 473.883v-412.072c0-34.137 27.673-61.811 61.811-61.811h309.637c11.379 0 20.604 9.224 20.604 20.604v421.158z" fill="#faf063"/><path d="m155.269 0c-34.14 0-61.811 27.671-61.811 61.811v409.538l-30.905 2.534v-412.072c0-34.14 27.67-61.811 61.81-61.811z" fill="#f3d332"/><path d="m453.96 504.377c.443.804.639 1.648.639 2.472 0 2.689-2.153 5.151-5.151 5.151h-349.294c-20.768 0-37.602-16.833-37.602-37.602 0-10.384 4.203-19.779 11.013-26.589 6.81-6.809 16.205-11.013 26.589-11.013h349.293c3.915 0 6.397 4.193 4.512 7.623-5.11 9.333-7.675 19.656-7.675 29.978.001 10.324 2.566 20.646 7.676 29.98z" fill="#f9f8f9"/><path d="m453.96 444.42c-4.007 7.314-6.449 15.226-7.304 23.282h-337.82c-8.551 0-15.475 6.943-15.453 15.494l.075 28.206c-17.575-3.152-30.905-18.523-30.905-37.004 0-10.384 4.203-19.779 11.013-26.589 6.81-6.809 16.205-11.013 26.589-11.013h349.293c3.914.001 6.397 4.194 4.512 7.624z" fill="#e3e0e4"/><path d="m440.402 334.809h-368.804c-22.758 0-41.207-18.45-41.207-41.207v-150.407c0-22.758 18.45-41.207 41.207-41.207h368.805c22.758 0 41.207 18.45 41.207 41.207v150.406c0 22.758-18.45 41.208-41.208 41.208z" fill="#80e29e"/><path d="m97.352 334.809h-25.754c-22.757 0-41.207-18.451-41.207-41.207v-150.407c0-22.757 18.451-41.207 41.207-41.207h25.755c-22.757 0-41.207 18.451-41.207 41.207v150.406c-.001 22.757 18.449 41.208 41.206 41.208z" fill="#77d192"/><g fill="#f9f8f9"><path d="m422.357 211.238c5.577-5.938 9.004-13.918 9.004-22.687 0-18.292-14.882-33.174-33.174-33.174h-32.124c-4.267 0-7.726 3.458-7.726 7.726v50.925.082 59.585c0 2.055.819 4.025 2.275 5.475 1.448 1.441 3.409 2.251 5.452 2.251h.034c.296-.001 29.657-.132 37.699-.132 20.674 0 37.494-16.82 37.494-37.494-.001-13.924-7.636-26.091-18.934-32.557zm-24.17-40.409c9.771 0 17.721 7.95 17.721 17.721 0 9.77-7.95 17.72-17.721 17.72-2.354 0-6.815.013-11.677.03h-12.721v-35.472h24.398zm5.61 95.007c-5.455 0-20.637.06-30.007.099v-44.132c3.769-.015 8.413-.034 12.742-.049h17.265c12.153 0 22.042 9.888 22.042 22.042s-9.889 22.04-22.042 22.04z"/><path d="m124.609 171.334c4.267 0 7.726-3.458 7.726-7.726s-3.459-7.726-7.726-7.726h-46.173c-4.267 0-7.726 3.458-7.726 7.726v109.581c0 4.268 3.459 7.726 7.726 7.726h46.173c4.267 0 7.726-3.458 7.726-7.726s-3.459-7.726-7.726-7.726h-38.447v-39.337h35.043c4.267 0 7.726-3.458 7.726-7.726s-3.459-7.726-7.726-7.726h-35.043v-39.339h38.447z"/><path d="m331.377 155.376c-4.267 0-7.726 3.458-7.726 7.726v76.019c0 10.184-5.427 17.868-16.592 23.491-4.419 2.226-9.377 3.355-14.734 3.355-.015 0-.032 0-.047 0-5.993-.009-11.456-1.562-16.236-4.615-9.661-6.172-13.783-12.797-13.783-22.151v-76.098c0-4.268-3.459-7.726-7.726-7.726s-7.726 3.458-7.726 7.726v76.098c0 14.676 6.841 26.181 20.916 35.173 7.298 4.663 15.552 7.033 24.535 7.046h.067c7.795 0 15.092-1.685 21.686-5.007 20.74-10.445 25.093-26.044 25.093-37.292v-76.019c0-4.267-3.46-7.726-7.727-7.726z"/></g></g><path d="m188.57 155.618h-31.346c-6.415 0-6.752 2.794-6.752 6.75v112.576c0 3.729 3.022 6.75 6.75 6.75s6.75-3.021 6.75-6.75v-42.186c7.319-.041 18.936-.102 24.596-.102 21.582 0 39.141-17.28 39.141-38.519-.001-21.24-17.557-38.519-39.139-38.519zm0 63.538c-5.622 0-17.069.058-24.416.101-.041-7.525-.102-19.387-.102-25.12 0-4.817-.034-17.206-.058-25.019h24.576c13.899 0 25.641 11.457 25.641 25.019s-11.743 25.019-25.641 25.019z" fill="#f9f8f9"/></g></svg>