<svg id="Capa_1" enable-background="new 0 0 497 497" height="512" viewBox="0 0 497 497" width="512" xmlns="http://www.w3.org/2000/svg"><g><path d="m445.81 159.802v292.823c0 24.508-19.907 44.375-44.464 44.375h-305.692c-24.557 0-44.464-19.867-44.464-44.375v-408.25c0-24.508 19.907-44.375 44.464-44.375h190.303c5.358 0 10.583 1.287 15.26 3.689 3.054 1.568 139.975 138.761 141.61 142.355 1.948 4.281 2.983 8.966 2.983 13.758z" fill="#f9f8f9"/><path d="m445.81 159.8v16.24h-115.96c-33.12 0-60.06-26.95-60.06-60.07v-115.97h16.17c4.425 0 8.763.88 12.775 2.541s142.605 140.12 144.249 143.848c1.847 4.188 2.826 8.751 2.826 13.411z" fill="#e3e0e4"/><path d="m125.65 497h-30c-24.55 0-44.46-19.87-44.46-44.38v-408.24c0-24.51 19.91-44.38 44.46-44.38h30c-24.55 0-44.46 19.87-44.46 44.38v408.24c0 24.51 19.91 44.38 44.46 44.38z" fill="#e3e0e4"/><path d="m442.82 146.04h-112.97c-16.6 0-30.06-13.46-30.06-30.07v-112.96c3.61 1.63 6.92 3.91 9.77 6.76l126.51 126.52c2.85 2.85 5.12 6.15 6.75 9.75z" fill="#a29aa5"/><path d="m332 267.633-133.907 22.279.26 121.573c0 19.666-18.436 35.608-41.177 35.608s-41.176-15.941-41.176-35.607 18.435-35.608 41.177-35.608c1.977 0 5.823.123 5.823.123v-126.001c0-8.975 6.756-16.371 15.459-17.382 1.711-.199 150.579-25.623 169.147-28.794 10.041-1.749 19.502 6.929 19.394 17.176l-.1 190.486c0 19.666-18.435 35.608-41.177 35.608-22.741 0-41.177-15.942-41.177-35.608s18.435-35.608 41.177-35.608c2.132 0 6.277.123 6.277.123z" fill="#9ec8fc"/><path d="m167.85 445.88c-3.4.79-6.98 1.21-10.67 1.21-22.74 0-41.18-15.94-41.18-35.6 0-19.67 18.44-35.61 41.18-35.61 1.37 0 3.65.06 4.91.09-15.16 5.83-25.8 19.32-25.8 34.46 0 17.01 13.39 31.31 31.56 35.45z" fill="#62a4fb"/><path d="m338.88 445.24c-4.14 1.2-8.56 1.85-13.16 1.85-22.74 0-41.17-15.94-41.17-35.6 0-19.67 18.43-35.61 41.17-35.61 1.48 0 3.93.06 5.29.09-12.71 7.31-21.19 20.79-21.19 34.46 0 16.22 12.18 29.98 29.06 34.81z" fill="#62a4fb"/><g fill="#9ec8fc"><path d="m162.09 375.97c.3-.12.6-.23.91-.34v.37s-.36-.01-.91-.03z"/><path d="m332 375.42v.58s-.39-.01-.99-.03c.33-.19.66-.37.99-.55z"/></g></g></svg>