<?xml version="1.0" encoding="UTF-8" standalone="no"?><!-- Generator: Gravit.io --><svg xmlns="http://www.w3.org/2000/svg" xmlns:xlink="http://www.w3.org/1999/xlink" style="isolation:isolate" viewBox="0 0 88.2 70" width="88.2pt" height="70pt"><g><g filter="url(#jE2ah9wEy12wE0k1zDerPMYxW73kmzZX)"><path d=" M 37.103 3.2 L 23.674 3.2 C 22.295 3.2 21.175 4.32 21.175 5.699 L 21.175 13.543 C 21.175 14.922 22.295 16.042 23.674 16.042 L 41.821 16.042 C 43.2 16.042 44.32 14.922 44.32 13.543 L 44.32 11.146 C 40.878 10.16 38.131 7.114 37.103 3.2 Z " fill-rule="evenodd" fill="rgb(122,123,125)"/></g><defs><filter id="jE2ah9wEy12wE0k1zDerPMYxW73kmzZX" x="-200%" y="-200%" width="400%" height="400%" filterUnits="objectBoundingBox" color-interpolation-filters="sRGB"><feGaussianBlur xmlns="http://www.w3.org/2000/svg" in="SourceGraphic" stdDeviation="2.146804531419514"/><feOffset xmlns="http://www.w3.org/2000/svg" dx="0" dy="0" result="pf_100_offsetBlur"/><feFlood xmlns="http://www.w3.org/2000/svg" flood-color="#000000" flood-opacity="0.65"/><feComposite xmlns="http://www.w3.org/2000/svg" in2="pf_100_offsetBlur" operator="in" result="pf_100_dropShadow"/><feBlend xmlns="http://www.w3.org/2000/svg" in="SourceGraphic" in2="pf_100_dropShadow" mode="normal"/></filter></defs><g filter="url(#d8xPmXh6oBq9alj0fdWHmP55D92GA6vP)"><path d="M 8.28 10.99 L 80.36 10.99 C 82.72 10.99 84.64 12.91 84.64 15.27 L 84.64 62.92 C 84.64 65.28 82.72 67.2 80.36 67.2 L 8.28 67.2 C 5.92 67.2 4 65.28 4 62.92 L 4 15.27 C 4 12.91 5.92 10.99 8.28 10.99 Z" style="stroke:none;fill:#FFD00D;stroke-miterlimit:10;"/><path d=" M 20.701 3.2 L 6.58 3.2 C 5.156 3.2 4 4.356 4 5.78 L 4 13.673 C 4 15.097 5.156 16.253 6.58 16.253 L 25.689 16.253 C 27.112 16.253 28.268 15.097 28.268 13.673 L 28.268 11.276 C 24.66 10.274 21.779 7.178 20.701 3.2 Z " fill-rule="evenodd" fill="rgb(255,208,13)"/></g><defs><filter id="d8xPmXh6oBq9alj0fdWHmP55D92GA6vP" x="-200%" y="-200%" width="400%" height="400%" filterUnits="objectBoundingBox" color-interpolation-filters="sRGB"><feGaussianBlur xmlns="http://www.w3.org/2000/svg" in="SourceGraphic" stdDeviation="2.146804531419514"/><feOffset xmlns="http://www.w3.org/2000/svg" dx="0" dy="0" result="pf_100_offsetBlur"/><feFlood xmlns="http://www.w3.org/2000/svg" flood-color="#4D4C4C" flood-opacity="0.65"/><feComposite xmlns="http://www.w3.org/2000/svg" in2="pf_100_offsetBlur" operator="in" result="pf_100_dropShadow"/><feBlend xmlns="http://www.w3.org/2000/svg" in="SourceGraphic" in2="pf_100_dropShadow" mode="normal"/></filter></defs></g></svg>