<?xml version="1.0" encoding="UTF-8" standalone="no"?><!-- Generator: Gravit.io --><svg xmlns="http://www.w3.org/2000/svg" xmlns:xlink="http://www.w3.org/1999/xlink" style="isolation:isolate" viewBox="0 0 406.53 512" width="406.53pt" height="512pt"><g><g><path d=" M 406.53 164.625 L 406.53 466.286 C 406.53 491.533 386.022 512 360.724 512 L 45.806 512 C 20.508 512 0 491.533 0 466.286 L 0 45.714 C 0 20.467 20.508 0 45.806 0 L 241.853 0 C 247.372 0 252.755 1.326 257.573 3.8 C 260.719 5.416 401.773 146.749 403.457 150.452 C 405.464 154.862 406.53 159.688 406.53 164.625 Z " fill="rgb(249,248,249)"/><path d=" M 406.53 164.623 L 406.53 181.353 L 287.07 181.353 C 252.951 181.353 225.198 153.59 225.198 119.47 L 225.198 0 L 241.856 0 C 246.414 0 250.883 0.907 255.016 2.618 C 259.149 4.329 401.925 146.967 403.619 150.807 C 405.522 155.122 406.53 159.822 406.53 164.623 L 406.53 164.623 Z " fill="rgb(227,224,228)"/><path d=" M 76.707 512 L 45.802 512 C 20.511 512 0 491.53 0 466.281 L 0 45.719 C 0 20.47 20.511 0 45.802 0 L 76.707 0 C 51.416 0 30.905 20.47 30.905 45.719 L 30.905 466.281 C 30.905 491.53 51.416 512 76.707 512 Z " fill="rgb(227,224,228)"/><path d=" M 403.45 150.448 L 287.07 150.448 C 269.969 150.448 256.103 136.581 256.103 119.47 L 256.103 3.101 C 259.822 4.78 263.232 7.129 266.168 10.065 L 396.496 140.403 C 399.432 143.339 401.771 146.739 403.45 150.448 Z " fill="rgb(162,154,165)"/><path d=" M 327.659 457.112 C 328.597 456.772 329.514 456.391 330.42 455.989 C 329.514 456.401 328.597 456.772 327.659 457.112 Z " fill="rgb(158,200,252)"/><path d=" M 327.659 457.112 C 328.597 456.772 329.514 456.391 330.42 455.989 C 329.514 456.401 328.597 456.772 327.659 457.112 Z " fill="rgb(185,161,211)"/></g><g><path d=" M 205.22 173.976 L 77.787 173.976 C 73.52 173.976 70.06 169.853 70.06 164.767 C 70.06 159.681 73.52 155.557 77.787 155.557 L 205.22 155.557 C 209.487 155.557 212.946 159.681 212.946 164.767 C 212.946 169.853 209.487 173.976 205.22 173.976 Z " fill="rgb(162,154,165)"/><path d=" M 205.22 395 L 77.787 395 C 73.52 395 70.06 390.877 70.06 385.791 C 70.06 380.705 73.52 376.581 77.787 376.581 L 205.22 376.581 C 209.487 376.581 212.946 380.705 212.946 385.791 C 212.946 390.877 209.487 395 205.22 395 Z " fill="rgb(162,154,165)"/><path d=" M 306.487 247.651 L 75.726 247.651 C 71.459 247.651 68 243.527 68 238.441 C 68 233.355 71.459 229.232 75.726 229.232 L 306.487 229.232 C 310.754 229.232 314.213 233.355 314.213 238.441 C 314.213 243.527 310.754 247.651 306.487 247.651 Z " fill="rgb(162,154,165)"/><path d=" M 306.487 321.325 L 75.726 321.325 C 71.459 321.325 68 317.202 68 312.116 C 68 307.03 71.459 302.907 75.726 302.907 L 306.487 302.907 C 310.754 302.907 314.213 307.03 314.213 312.116 C 314.213 317.202 310.754 321.325 306.487 321.325 Z " fill="rgb(162,154,165)"/></g></g></svg>