<svg id="Capa_1" enable-background="new 0 0 497 497" height="512" viewBox="0 0 497 497" width="512" xmlns="http://www.w3.org/2000/svg"><g><path d="m445.81 159.802v292.823c0 24.508-19.907 44.375-44.464 44.375h-305.692c-24.557 0-44.464-19.867-44.464-44.375v-408.25c0-24.508 19.907-44.375 44.464-44.375h190.303c5.358 0 10.583 1.287 15.26 3.689 3.054 1.568 139.975 138.761 141.61 142.355 1.948 4.281 2.983 8.966 2.983 13.758z" fill="#f9f8f9"/><path d="m445.81 159.8v16.24h-115.96c-33.12 0-60.06-26.95-60.06-60.07v-115.97h16.17c4.425 0 8.763.88 12.775 2.541s142.605 140.12 144.249 143.848c1.847 4.188 2.826 8.751 2.826 13.411z" fill="#e3e0e4"/><path d="m125.65 497h-30c-24.55 0-44.46-19.87-44.46-44.38v-408.24c0-24.51 19.91-44.38 44.46-44.38h30c-24.55 0-44.46 19.87-44.46 44.38v408.24c0 24.51 19.91 44.38 44.46 44.38z" fill="#e3e0e4"/><path d="m442.82 146.04h-112.97c-16.6 0-30.06-13.46-30.06-30.07v-112.96c3.61 1.63 6.92 3.91 9.77 6.76l126.51 126.52c2.85 2.85 5.12 6.15 6.75 9.75z" fill="#a29aa5"/><g><path d="m216.094 447.226c-9.38-2.327-15.098-11.818-12.771-21.198l49.646-200.318c2.325-9.38 11.815-15.104 21.199-12.771 9.381 2.326 15.098 11.818 12.771 21.199l-49.646 200.318c-2.327 9.379-11.818 15.097-21.199 12.77z" fill="#9ec8fc"/></g><g><path d="m278.96 214.91c-3.85 2.31-6.82 6.1-7.99 10.8l-49.65 200.32c-1.89 7.65 1.56 15.37 7.98 19.23-3.83 2.29-8.54 3.13-13.21 1.97-9.38-2.33-15.09-11.82-12.77-21.2l49.65-200.32c2.33-9.38 11.81-15.1 21.2-12.77 1.73.43 3.34 1.1 4.79 1.97z" fill="#62a4fb"/></g><g><path d="m157.5 408c-4.479 0-8.957-1.709-12.374-5.126l-53.429-53.429c-10.723-10.722-10.723-28.169 0-38.891l53.604-53.604c6.936-6.936 18.503-7.151 25.308-.086 6.599 6.851 6.521 17.754-.235 24.509l-41.554 41.555c-3.905 3.905-3.905 10.237 0 14.142l41.054 41.055c6.835 6.834 6.835 17.914 0 24.748-3.417 3.418-7.895 5.127-12.374 5.127z" fill="#9ec8fc"/></g><path d="m165.13 402.87c.74.74 1.54 1.41 2.37 1.98-2.99 2.1-6.49 3.15-10 3.15-4.48 0-8.96-1.71-12.37-5.13l-53.43-53.42c-10.73-10.73-10.73-28.17 0-38.9l53.93-53.92c6.09-6.09 15.55-6.76 22.37-1.98-.83.57-1.63 1.23-2.37 1.98l-53.93 53.92c-10.73 10.73-10.73 28.17 0 38.9z" fill="#62a4fb"/><g><path d="m332.5 408c4.479 0 8.957-1.709 12.374-5.126l53.429-53.429c10.723-10.722 10.723-28.169 0-38.891l-53.929-53.929c-6.834-6.834-17.914-6.834-24.748 0-6.835 6.834-6.835 17.914 0 24.748l48.625 48.627-48.125 48.126c-6.835 6.834-6.835 17.914 0 24.748 3.417 3.417 7.895 5.126 12.374 5.126z" fill="#9ec8fc"/></g><path d="m383.255 334.996-65.265 65.284c-4.6-6.81-3.89-16.13 2.14-22.15l43.121-43.13c2.761-2.762 2.761-7.239 0-10l-43.621-43.63c-6.05-6.04-6.75-15.4-2.09-22.21l65.719 65.84c2.757 2.762 2.756 7.236-.004 9.996z" fill="#62a4fb"/></g></svg>