<?xml version="1.0" encoding="UTF-8" standalone="no"?><!-- Generator: Gravit.io --><svg xmlns="http://www.w3.org/2000/svg" xmlns:xlink="http://www.w3.org/1999/xlink" style="isolation:isolate" viewBox="0 0 480 616" width="480pt" height="616pt"><g><g><defs><filter id="0WtBHJAYpiqB0N5pUFhBHdRKXLsbeBSV" x="-200%" y="-200%" width="400%" height="400%" filterUnits="objectBoundingBox" color-interpolation-filters="sRGB"><feGaussianBlur xmlns="http://www.w3.org/2000/svg" in="SourceGraphic" stdDeviation="17.174436251356113"/><feOffset xmlns="http://www.w3.org/2000/svg" dx="0" dy="0" result="pf_100_offsetBlur"/><feFlood xmlns="http://www.w3.org/2000/svg" flood-color="#888888" flood-opacity="0.65"/><feComposite xmlns="http://www.w3.org/2000/svg" in2="pf_100_offsetBlur" operator="in" result="pf_100_dropShadow"/><feBlend xmlns="http://www.w3.org/2000/svg" in="SourceGraphic" in2="pf_100_dropShadow" mode="normal"/></filter></defs><g filter="url(#0WtBHJAYpiqB0N5pUFhBHdRKXLsbeBSV)"><mask id="_mask_3HlwfYihD6i7esmaLQd3GESbnaArP7t0"><path d=" M 428 178 L 428 500.08 C 428 535.358 399.358 564 364.08 564 L 115.92 564 C 80.642 564 52 535.358 52 500.08 L 52 115.92 C 52 80.642 80.642 52 115.92 52 L 302 52 L 428 178 L 428 178 Z " fill="white" stroke="none"/></mask><path d=" M 428 178 L 428 500.08 C 428 535.358 399.358 564 364.08 564 L 115.92 564 C 80.642 564 52 535.358 52 500.08 L 52 115.92 C 52 80.642 80.642 52 115.92 52 L 302 52 L 428 178 L 428 178 Z " fill="rgb(255,255,255)"/><path d=" M 428 178 L 428 500.08 C 428 535.358 399.358 564 364.08 564 L 115.92 564 C 80.642 564 52 535.358 52 500.08 L 52 115.92 C 52 80.642 80.642 52 115.92 52 L 302 52 L 428 178 L 428 178 Z " fill="rgb(255,255,255)" mask="url(#_mask_3HlwfYihD6i7esmaLQd3GESbnaArP7t0)" vector-effect="non-scaling-stroke" stroke-width="2" stroke="rgb(217,214,214)" stroke-linejoin="miter" stroke-linecap="square" stroke-miterlimit="3"/></g><defs><filter id="9Dhse1RAkCAzUwKs2z4B7mlUsrhtJa45" x="-200%" y="-200%" width="400%" height="400%" filterUnits="objectBoundingBox" color-interpolation-filters="sRGB"><feGaussianBlur xmlns="http://www.w3.org/2000/svg" in="SourceGraphic" stdDeviation="13.73954900108489"/><feOffset xmlns="http://www.w3.org/2000/svg" dx="-2" dy="2" result="pf_100_offsetBlur"/><feFlood xmlns="http://www.w3.org/2000/svg" flood-color="#8A8A8A" flood-opacity="0.65"/><feComposite xmlns="http://www.w3.org/2000/svg" in2="pf_100_offsetBlur" operator="in" result="pf_100_dropShadow"/><feBlend xmlns="http://www.w3.org/2000/svg" in="SourceGraphic" in2="pf_100_dropShadow" mode="normal"/></filter></defs><g filter="url(#9Dhse1RAkCAzUwKs2z4B7mlUsrhtJa45)"><path d=" M 354 178 L 428 178 L 302 52 L 302 126 C 302 154.7 325.3 178 354 178 Z " fill="rgb(255,255,255)" vector-effect="non-scaling-stroke" stroke-width="1" stroke="rgb(217,214,214)" stroke-linejoin="miter" stroke-linecap="square" stroke-miterlimit="3"/></g></g><g><path d=" M 316.519 327.706 L 178.571 350.658 L 178.838 475.9 C 178.838 496.159 159.846 512.583 136.419 512.583 C 112.991 512.583 94 496.161 94 475.901 C 94 455.641 112.991 439.218 136.42 439.218 C 138.456 439.218 142.419 439.345 142.419 439.345 L 142.419 309.541 C 142.419 300.295 149.378 292.676 158.344 291.635 C 160.107 291.43 313.468 265.238 332.596 261.972 C 342.94 260.17 352.687 269.11 352.575 279.666 L 352.472 475.901 C 352.472 496.161 333.481 512.584 310.053 512.584 C 286.625 512.584 267.633 496.161 267.633 475.901 C 267.633 455.641 286.624 439.218 310.053 439.218 C 312.249 439.218 316.519 439.345 316.519 439.345 L 316.519 327.706 Z " fill="rgb(158,200,252)"/><path d=" M 147.415 511.461 C 143.912 512.275 140.224 512.707 136.423 512.707 C 112.997 512.707 94 496.286 94 476.033 C 94 455.769 112.997 439.348 136.423 439.348 C 137.834 439.348 140.183 439.41 141.481 439.441 C 125.863 445.447 114.902 459.344 114.902 474.941 C 114.902 492.464 128.696 507.196 147.415 511.461 L 147.415 511.461 Z " fill="rgb(98,164,251)"/><path d=" M 323.603 510.801 C 319.338 512.038 314.784 512.707 310.045 512.707 C 286.619 512.707 267.633 496.286 267.633 476.033 C 267.633 455.769 286.619 439.348 310.045 439.348 C 311.57 439.348 314.094 439.41 315.495 439.441 C 302.402 446.971 293.666 460.858 293.666 474.941 C 293.666 491.65 306.213 505.826 323.603 510.801 L 323.603 510.801 Z " fill="rgb(98,164,251)"/></g><g><rect x="52" y="115" width="215.63" height="90" transform="matrix(1,0,0,1,0,0)" fill="rgb(98,164,251)"/><text transform="matrix(1.17,0,0,1.17,82.59,182.98)" style="font-family:'Montserrat';font-weight:700;font-size:54px;font-style:normal;fill:#ffffff;stroke:none;">MP3</text></g></g></svg>