<?xml version="1.0" encoding="UTF-8" standalone="no"?><!-- Generator: Gravit.io --><svg xmlns="http://www.w3.org/2000/svg" xmlns:xlink="http://www.w3.org/1999/xlink" style="isolation:isolate" viewBox="0 0 420 460" width="420pt" height="460pt"><g><g filter="url(#mWEnDb6ygPTZio3q2yYDT1ahkmcktNyf)"><g><path d=" M 367.291 159.222 L 367.291 392.538 C 367.291 412.065 351.429 427.895 331.863 427.895 L 88.294 427.895 C 68.727 427.895 52.865 412.065 52.865 392.538 L 52.865 67.252 C 52.865 47.725 68.727 31.895 88.294 31.895 L 239.924 31.895 C 244.192 31.895 248.356 32.921 252.082 34.834 C 254.515 36.084 363.612 145.396 364.914 148.26 C 366.467 151.671 367.291 155.404 367.291 159.222 Z " fill="rgb(249,248,249)"/><path d=" M 367.291 159.221 L 367.291 172.16 L 274.896 172.16 C 248.507 172.16 227.042 150.688 227.042 124.298 L 227.042 31.895 L 239.926 31.895 C 243.451 31.895 246.908 32.597 250.104 33.92 C 253.301 35.243 363.729 145.565 365.04 148.535 C 366.511 151.872 367.291 155.508 367.291 159.221 L 367.291 159.221 Z " fill="rgb(227,224,228)"/><path d=" M 112.194 427.895 L 88.29 427.895 C 68.729 427.895 52.865 412.063 52.865 392.534 L 52.865 67.256 C 52.865 47.728 68.729 31.895 88.29 31.895 L 112.194 31.895 C 92.633 31.895 76.769 47.728 76.769 67.256 L 76.769 392.534 C 76.769 412.063 92.633 427.895 112.194 427.895 Z " fill="rgb(227,224,228)"/><path d=" M 364.909 148.257 L 274.896 148.257 C 261.67 148.257 250.945 137.532 250.945 124.298 L 250.945 34.294 C 253.822 35.592 256.459 37.409 258.73 39.68 L 359.53 140.488 C 361.801 142.759 363.61 145.389 364.909 148.257 Z " fill="rgb(162,154,165)"/><path d=" M 306.289 385.443 C 307.015 385.18 307.724 384.885 308.425 384.574 C 307.724 384.893 307.015 385.18 306.289 385.443 Z " fill="rgb(158,200,252)"/><path d=" M 306.289 385.443 C 307.015 385.18 307.724 384.885 308.425 384.574 C 307.724 384.893 307.015 385.18 306.289 385.443 Z " fill="rgb(185,161,211)"/></g><g><path d=" M 211.59 166.455 L 113.029 166.455 C 109.729 166.455 107.052 163.266 107.052 159.332 C 107.052 155.399 109.729 152.209 113.029 152.209 L 211.59 152.209 C 214.891 152.209 217.566 155.399 217.566 159.332 C 217.566 163.266 214.891 166.455 211.59 166.455 Z " fill="rgb(162,154,165)"/><path d=" M 211.59 337.403 L 113.029 337.403 C 109.729 337.403 107.052 334.214 107.052 330.28 C 107.052 326.347 109.729 323.157 113.029 323.157 L 211.59 323.157 C 214.891 323.157 217.566 326.347 217.566 330.28 C 217.566 334.214 214.891 337.403 211.59 337.403 Z " fill="rgb(162,154,165)"/><path d=" M 289.914 223.438 L 111.435 223.438 C 108.135 223.438 105.459 220.248 105.459 216.314 C 105.459 212.381 108.135 209.192 111.435 209.192 L 289.914 209.192 C 293.214 209.192 295.89 212.381 295.89 216.314 C 295.89 220.248 293.214 223.438 289.914 223.438 Z " fill="rgb(162,154,165)"/><path d=" M 289.914 280.42 L 111.435 280.42 C 108.135 280.42 105.459 277.231 105.459 273.297 C 105.459 269.364 108.135 266.175 111.435 266.175 L 289.914 266.175 C 293.214 266.175 295.89 269.364 295.89 273.297 C 295.89 277.231 293.214 280.42 289.914 280.42 Z " fill="rgb(162,154,165)"/></g></g><defs><filter id="mWEnDb6ygPTZio3q2yYDT1ahkmcktNyf" x="-200%" y="-200%" width="400%" height="400%" filterUnits="objectBoundingBox" color-interpolation-filters="sRGB"><feGaussianBlur xmlns="http://www.w3.org/2000/svg" in="SourceGraphic" stdDeviation="11.592744469665377"/><feOffset xmlns="http://www.w3.org/2000/svg" dx="0" dy="0" result="pf_100_offsetBlur"/><feFlood xmlns="http://www.w3.org/2000/svg" flood-color="#000000" flood-opacity="0.65"/><feComposite xmlns="http://www.w3.org/2000/svg" in2="pf_100_offsetBlur" operator="in" result="pf_100_dropShadow"/><feBlend xmlns="http://www.w3.org/2000/svg" in="SourceGraphic" in2="pf_100_dropShadow" mode="normal"/></filter></defs><g filter="url(#NrXN807BYTRbx5nx99Q9amswLGC2tG9p)"><g><path d=" M 343.715 121.03 L 403.951 346.436 C 408.993 365.301 397.756 384.69 378.853 389.741 L 143.541 452.624 C 124.637 457.676 105.227 446.478 100.185 427.613 L 16.205 113.354 C 11.164 94.489 22.401 75.101 41.304 70.049 L 187.794 30.902 C 191.917 29.8 196.204 29.716 200.299 30.603 C 202.972 31.182 336.591 108.623 338.589 111.053 C 340.969 113.948 342.73 117.341 343.715 121.03 Z " fill="rgb(249,248,249)"/><path d=" M 343.715 121.029 L 347.056 133.53 L 257.793 157.383 C 232.299 164.196 206.018 148.993 199.204 123.498 L 175.349 34.228 L 187.796 30.902 C 191.202 29.992 194.722 29.777 198.152 30.23 C 201.582 30.683 336.749 108.755 338.781 111.286 C 341.065 114.131 342.756 117.441 343.715 121.029 L 343.715 121.029 Z " fill="rgb(227,224,228)"/><path d=" M 166.63 446.454 L 143.538 452.625 C 124.64 457.675 105.226 446.475 100.184 427.609 L 16.206 113.358 C 11.164 94.491 22.403 75.1 41.301 70.05 L 64.394 63.879 C 45.496 68.929 34.257 88.32 39.299 107.187 L 123.277 421.438 C 128.319 440.304 147.732 451.504 166.63 446.454 Z " fill="rgb(227,224,228)"/><path d=" M 338.583 111.052 L 251.622 134.291 C 238.844 137.705 225.714 130.113 222.297 117.327 L 199.061 30.374 C 202.175 30.886 205.192 31.96 207.972 33.568 L 331.381 104.935 C 334.161 106.542 336.588 108.616 338.583 111.052 Z " fill="rgb(162,154,165)"/><path d=" M 343.186 355.33 C 343.819 354.889 344.428 354.421 345.025 353.94 C 344.43 354.429 343.819 354.889 343.186 355.33 Z " fill="rgb(158,200,252)"/><path d=" M 343.186 355.33 C 343.819 354.889 344.428 354.421 345.025 353.94 C 344.43 354.429 343.819 354.889 343.186 355.33 Z " fill="rgb(185,161,211)"/></g><g><path d=" M 195.16 168.215 L 99.94 193.661 C 96.752 194.513 93.343 192.123 92.328 188.323 C 91.312 184.523 93.074 180.75 96.262 179.898 L 191.482 154.452 C 194.671 153.6 198.079 155.991 199.095 159.791 C 200.11 163.592 198.349 167.363 195.16 168.215 Z " fill="rgb(162,154,165)"/><path d=" M 239.295 333.368 L 144.075 358.814 C 140.886 359.666 137.478 357.276 136.462 353.476 C 135.446 349.675 137.208 345.903 140.397 345.051 L 235.617 319.605 C 238.805 318.753 242.213 321.144 243.229 324.944 C 244.244 328.745 242.483 332.516 239.295 333.368 Z " fill="rgb(162,154,165)"/><path d=" M 285.54 203.045 L 113.112 249.124 C 109.923 249.976 106.515 247.585 105.5 243.785 C 104.484 239.984 106.246 236.213 109.434 235.361 L 281.862 189.282 C 285.051 188.43 288.459 190.82 289.474 194.621 C 290.49 198.421 288.729 202.193 285.54 203.045 Z " fill="rgb(162,154,165)"/><path d=" M 300.252 258.096 L 127.823 304.174 C 124.635 305.026 121.227 302.636 120.211 298.836 C 119.196 295.036 120.957 291.264 124.145 290.412 L 296.574 244.333 C 299.762 243.481 303.17 245.872 304.186 249.672 C 305.201 253.472 303.44 257.244 300.252 258.096 Z " fill="rgb(162,154,165)"/></g></g><defs><filter id="NrXN807BYTRbx5nx99Q9amswLGC2tG9p" x="-200%" y="-200%" width="400%" height="400%" filterUnits="objectBoundingBox" color-interpolation-filters="sRGB"><feGaussianBlur xmlns="http://www.w3.org/2000/svg" in="SourceGraphic" stdDeviation="15.027631719936599"/><feOffset xmlns="http://www.w3.org/2000/svg" dx="0" dy="0" result="pf_100_offsetBlur"/><feFlood xmlns="http://www.w3.org/2000/svg" flood-color="#000000" flood-opacity="1"/><feComposite xmlns="http://www.w3.org/2000/svg" in2="pf_100_offsetBlur" operator="in" result="pf_100_dropShadow"/><feBlend xmlns="http://www.w3.org/2000/svg" in="SourceGraphic" in2="pf_100_dropShadow" mode="normal"/></filter></defs></g></svg>