<?xml version="1.0" encoding="UTF-8" standalone="no"?><!-- Generator: Gravit.io --><svg xmlns="http://www.w3.org/2000/svg" xmlns:xlink="http://www.w3.org/1999/xlink" style="isolation:isolate" viewBox="0 0 88.2 70" width="88.2" height="70"><g><g><path d=" M 37.103 3.2 L 23.668 3.2 C 22.292 3.2 21.175 4.323 21.175 5.705 L 21.175 13.537 C 21.175 14.92 22.292 16.042 23.668 16.042 L 41.827 16.042 C 43.203 16.042 44.32 14.92 44.32 13.537 L 44.32 11.146 C 40.878 10.16 38.131 7.114 37.103 3.2 Z " fill-rule="evenodd" fill="rgb(199,154,131)"/></g><g filter="url(#EAvRJkNT7hEUBOIFFXKGNzp1FnbULxGg)"><path d="M 8.28 10.99 L 80.36 10.99 C 82.72 10.99 84.64 12.91 84.64 15.27 L 84.64 62.92 C 84.64 65.28 82.72 67.2 80.36 67.2 L 8.28 67.2 C 5.92 67.2 4 65.28 4 62.92 L 4 15.27 C 4 12.91 5.92 10.99 8.28 10.99 Z" style="stroke:none;fill:#FFD00D;stroke-miterlimit:10;"/><path d=" M 20.701 3.2 L 6.573 3.2 C 5.153 3.2 4 4.359 4 5.786 L 4 13.666 C 4 15.094 5.153 16.253 6.573 16.253 L 25.695 16.253 C 27.115 16.253 28.268 15.094 28.268 13.666 L 28.268 11.276 C 24.66 10.274 21.779 7.178 20.701 3.2 Z " fill-rule="evenodd" fill="rgb(255,208,13)"/></g><defs><filter id="EAvRJkNT7hEUBOIFFXKGNzp1FnbULxGg" x="-200%" y="-200%" width="400%" height="400%" filterUnits="objectBoundingBox" color-interpolation-filters="sRGB"><feGaussianBlur xmlns="http://www.w3.org/2000/svg" in="SourceGraphic" stdDeviation="2.146804531419514"/><feOffset xmlns="http://www.w3.org/2000/svg" dx="0" dy="0" result="pf_100_offsetBlur"/><feFlood xmlns="http://www.w3.org/2000/svg" flood-color="#4D4C4C" flood-opacity="0.65"/><feComposite xmlns="http://www.w3.org/2000/svg" in2="pf_100_offsetBlur" operator="in" result="pf_100_dropShadow"/><feBlend xmlns="http://www.w3.org/2000/svg" in="SourceGraphic" in2="pf_100_dropShadow" mode="normal"/></filter></defs><g filter="url(#0H8w9hGj259v06cSsrFbYYbyNHx2AabM)"><path d="M 6.04 40.25 L 27.35 40.25 C 28.48 40.25 29.39 41.16 29.39 42.29 L 29.39 65.16 C 29.39 66.29 28.48 67.2 27.35 67.2 L 6.04 67.2 C 4.91 67.2 4 66.29 4 65.16 L 4 42.29 C 4 41.16 4.91 40.25 6.04 40.25 Z" style="stroke:none;fill:#FFEBD2;stroke-miterlimit:10;"/><path d=" M 22.118 42.18 C 21.17 43.983 19.694 45.528 17.852 46.647 C 17.231 47.025 16.59 47.342 15.97 47.649 C 13.042 49.1 12.381 49.607 10.411 53.751 C 9.415 55.847 8.285 58.223 6.111 60.676 C 5.359 61.523 4 60.966 4 59.788 L 4 41.549 C 4 40.833 4.547 40.253 5.221 40.253 L 21.051 40.253 C 21.982 40.253 22.572 41.317 22.118 42.18 L 22.118 42.18 Z " fill="rgb(255,243,228)"/><path d=" M 21.275 49.605 L 17.553 47.63 C 16.742 47.2 15.786 47.826 15.786 48.789 L 15.786 52.759 L 14.526 52.759 C 12.484 52.759 10.823 54.522 10.823 56.688 C 10.823 58.855 12.484 60.617 14.526 60.617 C 16.567 60.617 18.228 58.855 18.228 56.688 C 18.228 56.044 18.228 51.471 18.228 50.886 L 20.182 51.923 C 20.786 52.243 21.519 51.984 21.821 51.344 C 22.122 50.703 21.878 49.925 21.275 49.605 L 21.275 49.605 Z " fill="rgb(199,154,131)"/></g><defs><filter id="0H8w9hGj259v06cSsrFbYYbyNHx2AabM" x="-200%" y="-200%" width="400%" height="400%" filterUnits="objectBoundingBox" color-interpolation-filters="sRGB"><feGaussianBlur xmlns="http://www.w3.org/2000/svg" in="SourceGraphic" stdDeviation="4.293609062839028"/><feOffset xmlns="http://www.w3.org/2000/svg" dx="0" dy="0" result="pf_100_offsetBlur"/><feFlood xmlns="http://www.w3.org/2000/svg" flood-color="#807F7F" flood-opacity="0.65"/><feComposite xmlns="http://www.w3.org/2000/svg" in2="pf_100_offsetBlur" operator="in" result="pf_100_dropShadow"/><feBlend xmlns="http://www.w3.org/2000/svg" in="SourceGraphic" in2="pf_100_dropShadow" mode="normal"/></filter></defs></g></svg>