<?xml version="1.0" encoding="UTF-8" standalone="no"?><!-- Generator: Gravit.io --><svg xmlns="http://www.w3.org/2000/svg" xmlns:xlink="http://www.w3.org/1999/xlink" style="isolation:isolate" viewBox="0 0 442 442" width="442pt" height="442pt"><g><path d=" M 439.618 2.382 L 439.618 439.618 L 2.382 439.618 L 2.382 23.409 C 2.382 11.794 11.794 2.382 23.409 2.382 L 439.618 2.382 Z " fill="rgb(255,235,210)"/><path d=" M 314.346 33.662 C 298.015 62.91 272.612 87.973 240.891 106.126 C 230.197 112.264 219.163 117.411 208.489 122.387 C 158.071 145.93 146.683 154.16 112.765 221.406 C 95.613 255.41 76.167 293.959 38.729 333.761 C 25.785 347.504 2.382 338.463 2.382 319.352 L 2.382 23.409 C 2.382 11.794 11.794 2.382 23.409 2.382 L 295.982 2.382 C 312.001 2.382 322.16 19.648 314.346 33.662 L 314.346 33.662 Z " fill="rgb(255,243,228)"/><path d=" M 299.825 154.128 L 235.742 122.087 C 221.786 115.111 205.311 125.267 205.311 140.894 L 205.311 205.312 L 183.616 205.312 C 148.465 205.312 119.867 233.91 119.867 269.06 C 119.867 304.212 148.465 332.81 183.617 332.81 C 218.768 332.81 247.366 304.212 247.366 269.06 C 247.366 258.613 247.366 184.403 247.366 174.917 L 281.018 191.744 C 291.404 196.935 304.035 192.726 309.229 182.34 C 314.422 171.952 310.212 159.321 299.825 154.128 L 299.825 154.128 Z " fill="rgb(199,154,131)"/></g></svg>