<?xml version="1.0" encoding="UTF-8" standalone="no"?><!-- Generator: Gravit.io --><svg xmlns="http://www.w3.org/2000/svg" xmlns:xlink="http://www.w3.org/1999/xlink" style="isolation:isolate" viewBox="0 0 88.2 70" width="88.2" height="70"><g><g><path d=" M 37.086 3.2 L 23.658 3.2 C 22.283 3.2 21.167 4.323 21.167 5.705 L 21.167 13.537 C 21.167 14.92 22.283 16.042 23.658 16.042 L 41.809 16.042 C 43.184 16.042 44.3 14.92 44.3 13.537 L 44.3 11.146 C 40.86 10.16 38.114 7.114 37.086 3.2 Z " fill-rule="evenodd" fill="rgb(0,206,180)"/></g><g filter="url(#tmCFNTrdUSep6OQqB04Cllz4j7N3uiGv)"><path d="M 8.28 10.99 L 80.32 10.99 C 82.68 10.99 84.6 12.91 84.6 15.27 L 84.6 62.92 C 84.6 65.28 82.68 67.2 80.32 67.2 L 8.28 67.2 C 5.92 67.2 4 65.28 4 62.92 L 4 15.27 C 4 12.91 5.92 10.99 8.28 10.99 Z" style="stroke:none;fill:#FFD00D;stroke-miterlimit:10;"/><path d=" M 20.692 3.2 L 6.572 3.2 C 5.152 3.2 4 4.359 4 5.786 L 4 13.666 C 4 15.094 5.152 16.253 6.572 16.253 L 25.685 16.253 C 27.104 16.253 28.256 15.094 28.256 13.666 L 28.256 11.276 C 24.649 10.274 21.77 7.178 20.692 3.2 Z " fill-rule="evenodd" fill="rgb(255,208,13)"/></g><defs><filter id="tmCFNTrdUSep6OQqB04Cllz4j7N3uiGv" x="-200%" y="-200%" width="400%" height="400%" filterUnits="objectBoundingBox" color-interpolation-filters="sRGB"><feGaussianBlur xmlns="http://www.w3.org/2000/svg" in="SourceGraphic" stdDeviation="2.146804531419514"/><feOffset xmlns="http://www.w3.org/2000/svg" dx="0" dy="0" result="pf_100_offsetBlur"/><feFlood xmlns="http://www.w3.org/2000/svg" flood-color="#4D4C4C" flood-opacity="0.65"/><feComposite xmlns="http://www.w3.org/2000/svg" in2="pf_100_offsetBlur" operator="in" result="pf_100_dropShadow"/><feBlend xmlns="http://www.w3.org/2000/svg" in="SourceGraphic" in2="pf_100_dropShadow" mode="normal"/></filter></defs><g filter="url(#omdhEL1Y2ozcmSRgmZfV75ja2iZoWB5S)"><g><g><path d=" M 37.996 38.237 C 39.5 38.431 40.572 39.799 40.408 41.315 L 38.274 60.297 C 38.11 61.808 36.759 62.899 35.257 62.734 C 35.227 62.731 35.197 62.727 35.167 62.723 L 35.028 62.723 L 35.028 45.326 C 35.028 43.78 33.782 42.527 32.245 42.527 L 9.055 42.527 L 9.566 37.863 C 9.759 36.326 11.141 35.227 12.673 35.392 L 37.996 38.237 Z " fill="rgb(0,172,234)"/><path d=" M 35.028 62.723 L 35.028 64.402 C 35.028 65.947 33.782 67.2 32.245 67.2 L 6.783 67.2 C 5.246 67.2 4 65.947 4 64.402 L 4 60.484 L 11.653 54.887 C 12.866 53.961 14.564 54.04 15.688 55.074 L 20.789 59.551 C 21.859 60.463 23.385 60.594 24.592 59.877 L 35.028 53.721 L 35.028 62.723 Z " fill="rgb(0,206,180)"/><path d=" M 35.028 45.326 L 35.028 53.721 L 24.592 59.877 C 23.385 60.594 21.859 60.463 20.789 59.551 L 15.688 55.074 C 14.564 54.04 12.866 53.961 11.653 54.887 L 4 60.484 L 4 45.326 C 4 43.78 5.246 42.527 6.783 42.527 L 32.245 42.527 C 33.782 42.528 35.028 43.78 35.028 45.326 Z " fill="rgb(0,239,209)"/></g><ellipse vector-effect="non-scaling-stroke" cx="22.55181972242819" cy="50.1764198636716" rx="2.9683089102250477" ry="2.9849782693917817" fill="rgb(212,225,244)"/></g></g><defs><filter id="omdhEL1Y2ozcmSRgmZfV75ja2iZoWB5S" x="-200%" y="-200%" width="400%" height="400%" filterUnits="objectBoundingBox" color-interpolation-filters="sRGB"><feGaussianBlur xmlns="http://www.w3.org/2000/svg" in="SourceGraphic" stdDeviation="4.293609062839028"/><feOffset xmlns="http://www.w3.org/2000/svg" dx="0" dy="0" result="pf_100_offsetBlur"/><feFlood xmlns="http://www.w3.org/2000/svg" flood-color="#686868" flood-opacity="0.65"/><feComposite xmlns="http://www.w3.org/2000/svg" in2="pf_100_offsetBlur" operator="in" result="pf_100_dropShadow"/><feBlend xmlns="http://www.w3.org/2000/svg" in="SourceGraphic" in2="pf_100_dropShadow" mode="normal"/></filter></defs></g></svg>