<svg id="Capa_1" enable-background="new 0 0 497 497" height="512" viewBox="0 0 497 497" width="512" xmlns="http://www.w3.org/2000/svg"><g><path d="m445.81 452.625c0 24.508-19.907 44.375-44.464 44.375h-305.692c-24.557 0-44.464-19.867-44.464-44.375v-408.25c0-24.508 19.907-44.375 44.464-44.375h190.303c8.857 0 17.35 3.516 23.606 9.773l126.505 126.521c6.239 6.239 9.742 14.694 9.742 23.508z" fill="#f9f8f9"/><path d="m125.65 497h-30c-24.55 0-44.46-19.87-44.46-44.38v-408.24c0-24.51 19.91-44.38 44.46-44.38h30c-24.55 0-44.46 19.87-44.46 44.38v408.24c0 24.51 19.91 44.38 44.46 44.38z" fill="#e3e0e4"/><path d="m445.81 159.8v16.24h-115.96c-33.12 0-60.06-26.95-60.06-60.07v-115.97h16.17c8.85 0 17.35 3.52 23.6 9.77l126.51 126.52c6.24 6.24 9.74 14.7 9.74 23.51z" fill="#e3e0e4"/><path d="m442.82 146.04h-112.97c-16.6 0-30.06-13.46-30.06-30.07v-112.96c3.61 1.63 6.92 3.91 9.77 6.76l126.51 126.52c2.85 2.85 5.12 6.15 6.75 9.75z" fill="#9ec8fc"/><path d="m427.5 431h-358c-22.091 0-40-17.909-40-40v-146c0-22.091 17.909-40 40-40h358c22.091 0 40 17.909 40 40v146c0 22.091-17.909 40-40 40z" fill="#9ec8fc"/><path d="m94.5 431h-25c-22.09 0-40-17.91-40-40v-146c0-22.09 17.91-40 40-40h25c-22.09 0-40 17.91-40 40v146c0 22.09 17.91 40 40 40z" fill="#62a4fb"/><g fill="#f9f8f9"><path d="m248.119 256.794c-.025-.069-.053-.138-.081-.206-1.585-3.851-5.298-6.338-9.461-6.338-.004 0-.008 0-.011 0-4.167.005-7.88 2.499-9.459 6.356-.023.057-.046.114-.067.172l-45.247 118.803c-1.475 3.87.469 8.203 4.34 9.678 3.866 1.475 8.203-.468 9.678-4.34l9.429-24.757h62.347l9.335 24.736c1.133 3.003 3.987 4.854 7.018 4.854.88 0 1.775-.156 2.647-.485 3.875-1.462 5.831-5.789 4.368-9.665zm-35.167 84.368 25.603-67.226 25.37 67.226z"/><path d="m352.75 327.884c.438 0 .862-.001 1.249-.001 22.381 0 40.589-17.413 40.589-38.816s-18.208-38.816-40.589-38.816h-32.021c-.007 0-.013.001-.02.001-.006 0-.013-.001-.019-.001-4.143 0-7.5 3.357-7.5 7.5v120.5c0 4.143 3.357 7.5 7.5 7.5s7.5-3.357 7.5-7.5v-50.27c1.064-.006 2.204-.012 3.398-.018l48.62 55.243c1.482 1.685 3.553 2.545 5.633 2.545 1.76 0 3.527-.616 4.952-1.87 3.109-2.736 3.411-7.476.675-10.585zm1.248-62.634c13.87 0 25.589 10.906 25.589 23.816s-11.719 23.816-25.589 23.816c-5.593 0-16.825.056-24.342.096-.042-7.433-.099-18.474-.099-23.912 0-4.577-.032-16.093-.057-23.816z"/><path d="m173.736 250h-66.823c-4.143 0-7.5 3.357-7.5 7.5s3.357 7.5 7.5 7.5h25.776v113.5c0 4.143 3.357 7.5 7.5 7.5s7.5-3.357 7.5-7.5v-113.5h26.047c4.143 0 7.5-3.357 7.5-7.5s-3.357-7.5-7.5-7.5z"/></g></g></svg>