<?xml version="1.0" encoding="UTF-8" standalone="no"?><!-- Generator: Gravit.io --><svg xmlns="http://www.w3.org/2000/svg" xmlns:xlink="http://www.w3.org/1999/xlink" style="isolation:isolate" viewBox="0 0 88.2 70" width="88.2" height="70"><g><g><path d=" M 37.086 3.2 L 23.665 3.2 C 22.286 3.2 21.167 4.319 21.167 5.698 L 21.167 13.544 C 21.167 14.923 22.286 16.042 23.665 16.042 L 41.802 16.042 C 43.181 16.042 44.3 14.923 44.3 13.544 L 44.3 11.146 C 40.86 10.16 38.114 7.114 37.086 3.2 Z " fill-rule="evenodd" fill="rgb(3,155,229)"/></g><g filter="url(#4Q0DvMcpEUHjOljODCFeAJB0a8kOCcyL)"><path d="M 8.28 10.99 L 80.32 10.99 C 82.68 10.99 84.6 12.91 84.6 15.27 L 84.6 62.92 C 84.6 65.28 82.68 67.2 80.32 67.2 L 8.28 67.2 C 5.92 67.2 4 65.28 4 62.92 L 4 15.27 C 4 12.91 5.92 10.99 8.28 10.99 Z" style="stroke:none;fill:#FFD00D;stroke-miterlimit:10;"/><path d=" M 20.692 3.2 L 6.579 3.2 C 5.156 3.2 4 4.356 4 5.779 L 4 13.674 C 4 15.097 5.156 16.253 6.579 16.253 L 25.677 16.253 C 27.101 16.253 28.256 15.097 28.256 13.674 L 28.256 11.276 C 24.649 10.274 21.77 7.178 20.692 3.2 Z " fill-rule="evenodd" fill="rgb(255,208,13)"/></g><defs><filter id="4Q0DvMcpEUHjOljODCFeAJB0a8kOCcyL" x="-200%" y="-200%" width="400%" height="400%" filterUnits="objectBoundingBox" color-interpolation-filters="sRGB"><feGaussianBlur xmlns="http://www.w3.org/2000/svg" in="SourceGraphic" stdDeviation="2.146804531419514"/><feOffset xmlns="http://www.w3.org/2000/svg" dx="0" dy="0" result="pf_100_offsetBlur"/><feFlood xmlns="http://www.w3.org/2000/svg" flood-color="#4D4C4C" flood-opacity="0.65"/><feComposite xmlns="http://www.w3.org/2000/svg" in2="pf_100_offsetBlur" operator="in" result="pf_100_dropShadow"/><feBlend xmlns="http://www.w3.org/2000/svg" in="SourceGraphic" in2="pf_100_dropShadow" mode="normal"/></filter></defs><g filter="url(#ggCoEi2dC3hbj3VuC8kT2fZ9cCIomJNI)"><ellipse vector-effect="non-scaling-stroke" cx="18.000000000000004" cy="53.59999999999998" rx="14.000000000000004" ry="13.59999999999998" fill="rgb(3,155,229)"/><path d=" M 10.406 53.305 L 23.905 48.25 C 24.531 48.03 25.078 48.398 24.875 49.318 L 24.876 49.317 L 22.578 59.836 C 22.408 60.581 21.952 60.763 21.313 60.411 L 17.813 57.906 L 16.125 59.485 C 15.938 59.667 15.781 59.82 15.419 59.82 L 15.668 56.36 L 22.154 50.667 C 22.437 50.426 22.091 50.29 21.719 50.53 L 13.703 55.433 L 10.248 54.385 C 9.497 54.154 9.481 53.657 10.406 53.305 Z " fill="rgb(255,255,255)"/></g><defs><filter id="ggCoEi2dC3hbj3VuC8kT2fZ9cCIomJNI" x="-200%" y="-200%" width="400%" height="400%" filterUnits="objectBoundingBox" color-interpolation-filters="sRGB"><feGaussianBlur xmlns="http://www.w3.org/2000/svg" in="SourceGraphic" stdDeviation="4.293609062839028"/><feOffset xmlns="http://www.w3.org/2000/svg" dx="0" dy="0" result="pf_100_offsetBlur"/><feFlood xmlns="http://www.w3.org/2000/svg" flood-color="#595959" flood-opacity="0.65"/><feComposite xmlns="http://www.w3.org/2000/svg" in2="pf_100_offsetBlur" operator="in" result="pf_100_dropShadow"/><feBlend xmlns="http://www.w3.org/2000/svg" in="SourceGraphic" in2="pf_100_dropShadow" mode="normal"/></filter></defs></g></svg>