<svg id="Capa_1" enable-background="new 0 0 497 497" height="512" viewBox="0 0 497 497" width="512" xmlns="http://www.w3.org/2000/svg"><g><path d="m445.81 452.625c0 24.508-19.907 44.375-44.464 44.375h-305.692c-24.557 0-44.464-19.867-44.464-44.375v-408.25c0-24.508 19.907-44.375 44.464-44.375h190.303c8.857 0 17.35 3.516 23.606 9.773l126.505 126.521c6.239 6.239 9.742 14.694 9.742 23.508z" fill="#f9f8f9"/><path d="m125.65 497h-30c-24.55 0-44.46-19.87-44.46-44.38v-408.24c0-24.51 19.91-44.38 44.46-44.38h30c-24.55 0-44.46 19.87-44.46 44.38v408.24c0 24.51 19.91 44.38 44.46 44.38z" fill="#e3e0e4"/><path d="m445.81 159.8v16.24h-115.96c-33.12 0-60.06-26.95-60.06-60.07v-115.97h16.17c8.85 0 17.35 3.52 23.6 9.77l126.51 126.52c6.24 6.24 9.74 14.7 9.74 23.51z" fill="#e3e0e4"/><path d="m442.82 146.04h-112.97c-16.6 0-30.06-13.46-30.06-30.07v-112.96c3.61 1.63 6.92 3.91 9.77 6.76l126.51 126.52c2.85 2.85 5.12 6.15 6.75 9.75z" fill="#b9a1d3"/><path d="m427.5 431h-358c-22.091 0-40-17.909-40-40v-146c0-22.091 17.909-40 40-40h358c22.091 0 40 17.909 40 40v146c0 22.091-17.909 40-40 40z" fill="#b9a1d3"/><path d="m94.5 431h-25c-22.09 0-40-17.91-40-40v-146c0-22.09 17.91-40 40-40h25c-22.09 0-40 17.91-40 40v146c0 22.09 17.91 40 40 40z" fill="#9573bb"/><g fill="#f9f8f9"><path d="m257.703 313.955 34.26-48.631c2.385-3.386 1.574-8.065-1.812-10.45-3.387-2.387-8.065-1.574-10.451 1.812l-31.165 44.238-31.118-44.234c-2.383-3.387-7.061-4.202-10.45-1.818-3.388 2.383-4.202 7.062-1.819 10.449l34.21 48.629-39.964 56.728c-2.385 3.386-1.574 8.065 1.812 10.45 1.313.926 2.82 1.37 4.313 1.37 2.357 0 4.677-1.108 6.138-3.182l36.869-52.335 36.814 52.331c1.46 2.075 3.782 3.186 6.141 3.186 1.491 0 2.997-.443 4.309-1.367 3.388-2.383 4.202-7.062 1.819-10.449z"/><path d="m384.427 253.504h-62.953c-4.142 0-7.5 3.357-7.5 7.5s3.358 7.5 7.5 7.5h23.849v106.492c0 4.143 3.358 7.5 7.5 7.5s7.5-3.357 7.5-7.5v-106.492h24.104c4.142 0 7.5-3.357 7.5-7.5s-3.358-7.5-7.5-7.5z"/><path d="m175.526 253.504h-62.953c-4.142 0-7.5 3.357-7.5 7.5s3.358 7.5 7.5 7.5h23.85v106.492c0 4.143 3.358 7.5 7.5 7.5s7.5-3.357 7.5-7.5v-106.492h24.104c4.142 0 7.5-3.357 7.5-7.5s-3.359-7.5-7.501-7.5z"/></g></g></svg>