<?xml version="1.0" encoding="UTF-8" standalone="no"?><!-- Generator: Gravit.io --><svg xmlns="http://www.w3.org/2000/svg" xmlns:xlink="http://www.w3.org/1999/xlink" style="isolation:isolate" viewBox="0 0 88.2 70" width="88.2" height="70"><g><g><g><path d=" M 37.103 3.2 L 23.668 3.2 C 22.292 3.2 21.175 4.323 21.175 5.705 L 21.175 13.537 C 21.175 14.92 22.292 16.042 23.668 16.042 L 41.827 16.042 C 43.203 16.042 44.32 14.92 44.32 13.537 L 44.32 11.146 C 40.878 10.16 38.131 7.114 37.103 3.2 Z " fill-rule="evenodd" fill="rgb(243,3,22)"/></g><g filter="url(#4UYgCx2BxXLhgDWCzCLxtYtKWPfgx9C4)"><path d="M 8.28 10.99 L 80.36 10.99 C 82.72 10.99 84.64 12.91 84.64 15.27 L 84.64 62.92 C 84.64 65.28 82.72 67.2 80.36 67.2 L 8.28 67.2 C 5.92 67.2 4 65.28 4 62.92 L 4 15.27 C 4 12.91 5.92 10.99 8.28 10.99 Z" style="stroke:none;fill:#FFD00D;stroke-miterlimit:10;"/><path d=" M 20.701 3.2 L 6.573 3.2 C 5.153 3.2 4 4.359 4 5.786 L 4 13.666 C 4 15.094 5.153 16.253 6.573 16.253 L 25.695 16.253 C 27.115 16.253 28.268 15.094 28.268 13.666 L 28.268 11.276 C 24.66 10.274 21.779 7.178 20.701 3.2 Z " fill-rule="evenodd" fill="rgb(255,208,13)"/></g><defs><filter id="4UYgCx2BxXLhgDWCzCLxtYtKWPfgx9C4" x="-200%" y="-200%" width="400%" height="400%" filterUnits="objectBoundingBox" color-interpolation-filters="sRGB"><feGaussianBlur xmlns="http://www.w3.org/2000/svg" in="SourceGraphic" stdDeviation="2.146804531419514"/><feOffset xmlns="http://www.w3.org/2000/svg" dx="0" dy="0" result="pf_100_offsetBlur"/><feFlood xmlns="http://www.w3.org/2000/svg" flood-color="#4D4C4C" flood-opacity="0.65"/><feComposite xmlns="http://www.w3.org/2000/svg" in2="pf_100_offsetBlur" operator="in" result="pf_100_dropShadow"/><feBlend xmlns="http://www.w3.org/2000/svg" in="SourceGraphic" in2="pf_100_dropShadow" mode="normal"/></filter></defs></g><g filter="url(#GxqliYs0WAw8URPivNSLS4terdqKxnVu)"><g><linearGradient id="_lgradient_20" x1="0.24646226190773848" y1="0.1977551149206319" x2="0.769222021121382" y2="0.7205148741342757" gradientTransform="matrix(29.95,0,0,26.32,4,40.88)" gradientUnits="userSpaceOnUse"><stop offset="0%" stop-opacity="1" style="stop-color:rgb(255,99,123)"/><stop offset="100%" stop-opacity="1" style="stop-color:rgb(249,2,23)"/></linearGradient><path d=" M 32.593 44.917 C 32.183 43.548 31.117 42.504 29.781 42.182 C 22.605 40.452 15.347 40.452 8.171 42.182 C 6.836 42.504 5.769 43.548 5.36 44.917 C 3.547 50.98 3.547 57.105 5.36 63.167 C 5.769 64.536 6.836 65.581 8.171 65.903 C 15.347 67.632 22.605 67.632 29.781 65.903 C 31.116 65.581 32.183 64.536 32.593 63.167 C 34.405 57.105 34.405 50.98 32.593 44.917 L 32.593 44.917 Z " fill="url(#_lgradient_20)"/><linearGradient id="_lgradient_21" x1="0.5000009901323411" y1="0.35274743903325034" x2="0.500000990132341" y2="0.9768120504686026" gradientTransform="matrix(29.66,0,0,10.16,4.15,57.04)" gradientUnits="userSpaceOnUse"><stop offset="0%" stop-opacity="0" style="stop-color:rgb(249,2,23)"/><stop offset="26.69%" stop-opacity="0.267" style="stop-color:rgb(231,1,15)"/><stop offset="72.32%" stop-opacity="0.723" style="stop-color:rgb(206,0,4)"/><stop offset="100%" stop-opacity="1" style="stop-color:rgb(197,0,0)"/></linearGradient><path d=" M 4.147 57.04 C 4.347 59.086 4.751 61.13 5.36 63.167 C 5.769 64.536 6.836 65.581 8.171 65.902 C 15.347 67.632 22.605 67.632 29.781 65.902 C 31.116 65.581 32.183 64.536 32.593 63.167 C 33.202 61.13 33.605 59.086 33.805 57.04 L 4.147 57.04 Z " fill="url(#_lgradient_21)"/></g><linearGradient id="_lgradient_22" x1="0.6535650290693927" y1="0.8707303967487817" x2="0.346950020585998" y2="0.44209730829714383" gradientTransform="matrix(18.22,0,0,19.87,14.95,47.25)" gradientUnits="userSpaceOnUse"><stop offset="0%" stop-opacity="0" style="stop-color:rgb(249,2,23)"/><stop offset="26.69%" stop-opacity="0.267" style="stop-color:rgb(231,1,15)"/><stop offset="72.32%" stop-opacity="0.723" style="stop-color:rgb(206,0,4)"/><stop offset="100%" stop-opacity="1" style="stop-color:rgb(197,0,0)"/></linearGradient><path d=" M 29.781 65.902 C 31.117 65.581 32.183 64.536 32.593 63.167 C 32.813 62.431 33.005 61.695 33.172 60.958 L 25.686 53.118 C 25.569 52.937 25.414 52.777 25.221 52.65 L 17.234 47.526 C 16.189 46.84 14.948 47.503 14.948 48.796 L 14.948 59.288 C 14.948 59.872 15.109 60.353 15.51 60.641 L 21.694 67.118 C 24.395 66.955 27.094 66.55 29.781 65.902 Z " fill="url(#_lgradient_22)"/><linearGradient id="_lgradient_23" x1="0.21851611855953756" y1="0.4523517094839744" x2="0.5069284756665412" y2="0.7407640665909782" gradientTransform="matrix(11.13,0,0,13.79,14.83,47.15)" gradientUnits="userSpaceOnUse"><stop offset="0%" stop-opacity="1" style="stop-color:rgb(235,239,240)"/><stop offset="100%" stop-opacity="1" style="stop-color:rgb(227,229,228)"/></linearGradient><path d=" M 25.221 52.65 L 17.234 47.403 C 16.189 46.717 14.831 47.504 14.831 48.796 L 14.831 59.288 C 14.831 60.581 16.189 61.368 17.234 60.681 L 25.221 55.435 C 26.201 54.79 26.201 53.294 25.221 52.65 L 25.221 52.65 Z " fill="url(#_lgradient_23)"/></g><defs><filter id="GxqliYs0WAw8URPivNSLS4terdqKxnVu" x="-200%" y="-200%" width="400%" height="400%" filterUnits="objectBoundingBox" color-interpolation-filters="sRGB"><feGaussianBlur xmlns="http://www.w3.org/2000/svg" in="SourceGraphic" stdDeviation="4.293609062839028"/><feOffset xmlns="http://www.w3.org/2000/svg" dx="0" dy="0" result="pf_100_offsetBlur"/><feFlood xmlns="http://www.w3.org/2000/svg" flood-color="#5E5E5E" flood-opacity="0.65"/><feComposite xmlns="http://www.w3.org/2000/svg" in2="pf_100_offsetBlur" operator="in" result="pf_100_dropShadow"/><feBlend xmlns="http://www.w3.org/2000/svg" in="SourceGraphic" in2="pf_100_dropShadow" mode="normal"/></filter></defs></g></svg>