<?xml version="1.0" encoding="UTF-8" standalone="no"?><!-- Generator: Gravit.io --><svg xmlns="http://www.w3.org/2000/svg" xmlns:xlink="http://www.w3.org/1999/xlink" style="isolation:isolate" viewBox="0 0 406.5 512" width="406.5pt" height="512pt"><g><path d=" M 406.53 164.625 L 406.53 466.286 C 406.53 491.533 386.022 512 360.724 512 L 45.806 512 C 20.508 512 0 491.533 0 466.286 L 0 45.714 C 0 20.467 20.508 0 45.806 0 L 241.853 0 C 247.372 0 252.755 1.326 257.573 3.8 C 260.719 5.416 401.773 146.749 403.457 150.452 C 405.464 154.862 406.53 159.688 406.53 164.625 Z " fill="rgb(249,248,249)"/><path d=" M 406.53 164.623 L 406.53 181.353 L 287.07 181.353 C 252.951 181.353 225.198 153.59 225.198 119.47 L 225.198 0 L 241.856 0 C 246.414 0 250.883 0.907 255.016 2.618 C 259.149 4.329 401.925 146.967 403.619 150.807 C 405.522 155.122 406.53 159.822 406.53 164.623 L 406.53 164.623 Z " fill="rgb(227,224,228)"/><path d=" M 76.707 512 L 45.802 512 C 20.511 512 0 491.53 0 466.281 L 0 45.719 C 0 20.47 20.511 0 45.802 0 L 76.707 0 C 51.416 0 30.905 20.47 30.905 45.719 L 30.905 466.281 C 30.905 491.53 51.416 512 76.707 512 Z " fill="rgb(227,224,228)"/><path d=" M 403.45 150.448 L 287.07 150.448 C 269.969 150.448 256.103 136.581 256.103 119.47 L 256.103 3.101 C 259.822 4.78 263.232 7.129 266.168 10.065 L 396.496 140.403 C 399.432 143.339 401.771 146.739 403.45 150.448 Z " fill="rgb(253,53,76)"/><path d=" M 327.659 457.112 C 328.597 456.772 329.514 456.391 330.42 455.989 C 329.514 456.401 328.597 456.772 327.659 457.112 Z " fill="rgb(158,200,252)"/><path d=" M 327.659 457.112 C 328.597 456.772 329.514 456.391 330.42 455.989 C 329.514 456.401 328.597 456.772 327.659 457.112 Z " fill="rgb(185,161,211)"/></g><linearGradient id="_lgradient_0" x1="0.08506206450430052" y1="0.01574240393027937" x2="0.5785584614546059" y2="0.7923676644907319" gradientTransform="matrix(162.1,0,0,190.6,122.2,256)" gradientUnits="userSpaceOnUse"><stop offset="3.3333333333333335%" stop-opacity="1" style="stop-color:rgb(247,112,128)"/><stop offset="100%" stop-opacity="1" style="stop-color:rgb(255,0,0)"/></linearGradient><path d=" M 273.602 332.033 L 157.23 259.509 C 142 250.018 122.211 260.896 122.211 278.76 L 122.211 423.808 C 122.211 441.672 142 452.55 157.23 443.059 L 273.602 370.535 C 287.892 361.628 287.892 340.939 273.602 332.033 L 273.602 332.033 Z " fill="url(#_lgradient_0)"/></svg>