<?xml version="1.0" encoding="UTF-8" standalone="no"?><!-- Generator: Gravit.io --><svg xmlns="http://www.w3.org/2000/svg" xmlns:xlink="http://www.w3.org/1999/xlink" style="isolation:isolate" viewBox="0 0 88.2 70" width="88.2" height="70"><g><g><path d=" M 37.086 3.2 L 23.665 3.2 C 22.286 3.2 21.167 4.319 21.167 5.698 L 21.167 13.544 C 21.167 14.923 22.286 16.042 23.665 16.042 L 41.802 16.042 C 43.181 16.042 44.3 14.923 44.3 13.544 L 44.3 11.146 C 40.86 10.16 38.114 7.114 37.086 3.2 Z " fill-rule="evenodd" fill="rgb(85,205,108)"/></g><g filter="url(#WaIrGuHwyAgtDDjQcoUTmhJSqmKjsFyG)"><path d="M 8.28 10.99 L 80.32 10.99 C 82.68 10.99 84.6 12.91 84.6 15.27 L 84.6 62.92 C 84.6 65.28 82.68 67.2 80.32 67.2 L 8.28 67.2 C 5.92 67.2 4 65.28 4 62.92 L 4 15.27 C 4 12.91 5.92 10.99 8.28 10.99 Z" style="stroke:none;fill:#FFD00D;stroke-miterlimit:10;"/><path d=" M 20.692 3.2 L 6.579 3.2 C 5.156 3.2 4 4.356 4 5.779 L 4 13.674 C 4 15.097 5.156 16.253 6.579 16.253 L 25.677 16.253 C 27.101 16.253 28.256 15.097 28.256 13.674 L 28.256 11.276 C 24.649 10.274 21.77 7.178 20.692 3.2 Z " fill-rule="evenodd" fill="rgb(255,208,13)"/></g><defs><filter id="WaIrGuHwyAgtDDjQcoUTmhJSqmKjsFyG" x="-200%" y="-200%" width="400%" height="400%" filterUnits="objectBoundingBox" color-interpolation-filters="sRGB"><feGaussianBlur xmlns="http://www.w3.org/2000/svg" in="SourceGraphic" stdDeviation="2.146804531419514"/><feOffset xmlns="http://www.w3.org/2000/svg" dx="0" dy="0" result="pf_100_offsetBlur"/><feFlood xmlns="http://www.w3.org/2000/svg" flood-color="#4D4C4C" flood-opacity="0.65"/><feComposite xmlns="http://www.w3.org/2000/svg" in2="pf_100_offsetBlur" operator="in" result="pf_100_dropShadow"/><feBlend xmlns="http://www.w3.org/2000/svg" in="SourceGraphic" in2="pf_100_dropShadow" mode="normal"/></filter></defs><g filter="url(#sHQY9NL3si4aETffibFsoFjjIN9SAeew)"><path d=" M 4 67.2 L 6 59.95 C 4.7 57.7 4 55.2 4 52.6 C 4 44.7 10.5 38.2 18.45 38.2 C 26.4 38.2 33 44.7 33 52.6 C 33 60.5 26.4 67.2 18.45 67.2 C 15.95 67.2 13.55 66.4 11.4 65.2 L 4 67.2 Z " fill="rgb(237,237,237)"/><path d=" M 11.8 62.6 L 12.25 62.85 C 14.1 64 16.25 64.7 18.5 64.7 C 25.05 64.7 30.5 59.25 30.5 52.6 C 30.5 45.95 25.05 40.7 18.45 40.7 C 11.85 40.7 6.5 46 6.5 52.6 C 6.5 54.9 7.15 57.15 8.35 59.05 L 8.65 59.5 L 7.5 63.7 L 11.8 62.6 Z " fill="rgb(85,205,108)"/><path d=" M 14.6 45.9 L 13.65 45.85 C 13.35 45.85 13.05 45.95 12.85 46.15 C 12.4 46.55 11.65 47.3 11.45 48.3 C 11.1 49.8 11.65 51.6 12.95 53.4 C 14.25 55.2 16.75 58.1 21.15 59.35 C 22.55 59.75 23.65 59.5 24.55 58.95 C 25.25 58.5 25.7 57.8 25.85 57.05 L 26 56.35 C 26.05 56.15 25.95 55.9 25.75 55.8 L 22.6 54.35 C 22.4 54.25 22.15 54.3 22 54.5 L 20.75 56.1 C 20.65 56.2 20.5 56.25 20.35 56.2 C 19.5 55.9 16.65 54.7 15.1 51.7 C 15.05 51.55 15.05 51.4 15.15 51.3 L 16.35 49.95 C 16.45 49.8 16.5 49.6 16.45 49.45 L 15 46.2 C 14.95 46.05 14.8 45.9 14.6 45.9 Z " fill="rgb(254,254,254)"/></g><defs><filter id="sHQY9NL3si4aETffibFsoFjjIN9SAeew" x="-200%" y="-200%" width="400%" height="400%" filterUnits="objectBoundingBox" color-interpolation-filters="sRGB"><feGaussianBlur xmlns="http://www.w3.org/2000/svg" in="SourceGraphic" stdDeviation="4.293609062839028"/><feOffset xmlns="http://www.w3.org/2000/svg" dx="0" dy="0" result="pf_100_offsetBlur"/><feFlood xmlns="http://www.w3.org/2000/svg" flood-color="#5E5D5D" flood-opacity="0.65"/><feComposite xmlns="http://www.w3.org/2000/svg" in2="pf_100_offsetBlur" operator="in" result="pf_100_dropShadow"/><feBlend xmlns="http://www.w3.org/2000/svg" in="SourceGraphic" in2="pf_100_dropShadow" mode="normal"/></filter></defs></g></svg>