<svg id="Capa_1" enable-background="new 0 0 512 512" height="512" viewBox="0 0 512 512" width="512" xmlns="http://www.w3.org/2000/svg"><g><path d="m459.265 466.286c0 25.248-20.508 45.714-45.806 45.714h-314.918c-25.298 0-45.806-20.467-45.806-45.714v-420.572c0-25.247 20.508-45.714 45.806-45.714h196.047c9.124 0 17.874 3.622 24.318 10.068l130.323 130.34c6.427 6.427 10.036 15.137 10.036 24.217z" fill="#f9f8f9"/><path d="m129.442 512h-30.905c-25.291 0-45.802-20.47-45.802-45.719v-420.562c0-25.249 20.511-45.719 45.802-45.719h30.905c-25.291 0-45.802 20.47-45.802 45.719v420.561c0 25.25 20.511 45.72 45.802 45.72z" fill="#e3e0e4"/><path d="m459.265 164.623v16.73h-119.46c-34.12 0-61.873-27.763-61.873-61.883v-119.47h16.658c9.117 0 17.874 3.626 24.312 10.065l130.328 130.339c6.429 6.428 10.035 15.143 10.035 24.219z" fill="#e3e0e4"/><path d="m456.185 150.448h-116.38c-17.101 0-30.967-13.866-30.967-30.978v-116.369c3.719 1.679 7.129 4.028 10.065 6.964l130.328 130.339c2.936 2.935 5.275 6.335 6.954 10.044z" fill="#faf063"/><path d="m440.402 444.008h-368.804c-22.758 0-41.207-18.45-41.207-41.207v-150.407c0-22.758 18.45-41.207 41.207-41.207h368.805c22.758 0 41.207 18.45 41.207 41.207v150.406c0 22.759-18.45 41.208-41.208 41.208z" fill="#faf063"/><path d="m97.352 444.008h-25.754c-22.757 0-41.207-18.451-41.207-41.207v-150.407c0-22.757 18.451-41.207 41.207-41.207h25.755c-22.757 0-41.207 18.451-41.207 41.207v150.406c-.001 22.757 18.449 41.208 41.206 41.208z" fill="#f3d332"/><g fill="#f9f8f9"><path d="m262.504 255.44c-4.267 0-7.726 3.458-7.726 7.726v128.863c0 4.268 3.459 7.726 7.726 7.726s7.726-3.458 7.726-7.726v-128.863c0-4.268-3.459-7.726-7.726-7.726z"/><path d="m221.296 384.303h-71.709l76.181-116.918c1.547-2.376 1.671-5.407.319-7.899-1.351-2.493-3.958-4.046-6.793-4.046h-81.32c-4.267 0-7.726 3.458-7.726 7.726s3.459 7.726 7.726 7.726h67.065l-76.181 116.918c-1.547 2.376-1.671 5.407-.319 7.899 1.351 2.493 3.958 4.046 6.793 4.046h85.966c4.267 0 7.726-3.458 7.726-7.726s-3.461-7.726-7.728-7.726z"/><path d="m339.592 255.44h-35.881c-7.343 0-7.729 3.198-7.729 7.726v128.863c0 4.268 3.459 7.726 7.726 7.726s7.726-3.458 7.726-7.726v-48.29c8.378-.047 21.676-.116 28.155-.116 24.705 0 44.804-19.78 44.804-44.092-.001-24.312-20.096-44.091-44.801-44.091zm0 72.73c-6.436 0-19.538.067-27.949.115-.047-8.613-.116-22.192-.116-28.754 0-5.514-.039-19.695-.066-28.639h28.131c15.91 0 29.351 13.114 29.351 28.639s-13.442 28.639-29.351 28.639z"/></g></g></svg>